<?xml version="1.0" encoding="UTF-8"?>
<!DOCTYPE svg PUBLIC "-//W3C//DTD SVG 1.1//EN" "http://www.w3.org/Graphics/SVG/1.1/DTD/svg11.dtd"><svg version="1.1" viewBox="0 0 21000 29700" preserveAspectRatio="xMidYMid" fill-rule="evenodd" xmlns="http://www.w3.org/2000/svg" xmlns:xlink="http://www.w3.org/1999/xlink"><g visibility="visible" id="Default"><desc>Master slide</desc></g><g visibility="visible" id="page1"><desc>Slide</desc><g><desc>Drawing</desc><g><g style="stroke:none;fill:rgb(0,102,204)"><path d="M 7133,9901 L 7113,9899 7092,9894 7072,9885 7052,9873 7032,9858 7012,9839 6974,9793 6936,9737 6901,9670 6867,9594 6835,9510 6780,9320 6737,9109 6710,8883 6700,8650 6710,8417 6737,8191 6780,7980 6835,7791 6867,7707 6901,7631 6936,7564 6974,7507 7012,7462 7032,7443 7052,7428 7072,7416 7092,7407 7113,7402 7133,7400 9301,7400 9281,7402 9260,7407 9240,7416 9220,7428 9200,7443 9180,7462 9142,7507 9104,7564 9068,7631 9034,7707 9003,7791 8947,7980 8904,8191 8877,8417 8867,8650 8877,8883 8904,9109 8947,9320 9003,9510 9034,9594 9068,9670 9104,9737 9142,9793 9180,9839 9200,9858 9220,9873 9240,9885 9260,9894 9281,9899 9301,9901 7133,9901 Z"/></g><g style="stroke:none;fill:rgb(255,255,255)"><path d="M 7126,9976 L 7106,9974 7113,9899 7119,9824 7140,9826 7133,9901 7126,9976 Z"/><path d="M 7113,9899 L 7106,9974 7093,9972 7113,9899 Z"/><path d="M 7093,9972 L 7073,9966 7092,9894 7112,9821 7132,9827 7113,9899 7093,9972 Z"/><path d="M 7092,9894 L 7073,9966 7062,9963 7092,9894 Z"/><path d="M 7062,9963 L 7042,9954 7072,9885 7102,9816 7122,9825 7092,9894 7062,9963 Z"/><path d="M 7072,9885 L 7042,9954 7033,9949 7072,9885 Z"/><path d="M 7033,9949 L 7013,9937 7052,9873 7091,9809 7111,9821 7072,9885 7033,9949 Z"/><path d="M 7052,9873 L 7013,9937 7006,9932 7052,9873 Z"/><path d="M 7006,9932 L 6986,9917 7032,9858 7078,9798 7098,9813 7052,9873 7006,9932 Z"/><path d="M 7032,9858 L 6986,9917 6981,9912 7032,9858 Z"/><path d="M 6981,9912 L 6961,9894 7012,9839 7064,9784 7083,9803 7032,9858 6981,9912 Z"/><path d="M 7012,9839 L 6961,9894 6955,9888 7012,9839 Z"/><path d="M 6955,9888 L 6917,9842 6974,9793 7031,9745 7070,9791 7012,9839 6955,9888 Z"/><path d="M 6974,9793 L 6917,9842 6911,9835 6974,9793 Z"/><path d="M 6911,9835 L 6874,9778 6936,9737 6999,9695 7036,9752 6974,9793 6911,9835 Z"/><path d="M 6936,9737 L 6874,9778 6870,9772 6936,9737 Z"/><path d="M 6870,9772 L 6835,9705 6901,9670 6967,9635 7003,9701 6936,9737 6870,9772 Z"/><path d="M 6901,9670 L 6835,9705 6832,9701 6901,9670 Z"/><path d="M 6832,9701 L 6798,9625 6867,9594 6935,9563 6969,9639 6901,9670 6832,9701 Z"/><path d="M 6867,9594 L 6798,9625 6797,9620 6867,9594 Z"/><path d="M 6797,9620 L 6765,9536 6835,9510 6905,9483 6937,9568 6867,9594 6797,9620 Z"/><path d="M 6835,9510 L 6765,9536 6763,9531 6835,9510 Z"/><path d="M 6763,9531 L 6708,9342 6780,9320 6852,9299 6907,9489 6835,9510 6763,9531 Z"/><path d="M 6780,9320 L 6708,9342 6706,9335 6780,9320 Z"/><path d="M 6706,9335 L 6664,9124 6737,9109 6811,9094 6853,9306 6780,9320 6706,9335 Z"/><path d="M 6737,9109 L 6664,9124 6663,9118 6737,9109 Z"/><path d="M 6663,9118 L 6635,8892 6710,8883 6784,8874 6812,9100 6737,9109 6663,9118 Z"/><path d="M 6710,8883 L 6635,8892 6635,8886 6710,8883 Z"/><path d="M 6635,8886 L 6625,8653 6700,8650 6775,8647 6785,8880 6710,8883 6635,8886 Z"/><path d="M 6700,8650 L 6625,8653 6625,8647 6700,8650 Z"/><path d="M 6625,8647 L 6635,8414 6710,8417 6785,8420 6775,8653 6700,8650 6625,8647 Z"/><path d="M 6710,8417 L 6635,8414 6635,8408 6710,8417 Z"/><path d="M 6635,8408 L 6663,8182 6737,8191 6812,8200 6784,8426 6710,8417 6635,8408 Z"/><path d="M 6737,8191 L 6663,8182 6664,8176 6737,8191 Z"/><path d="M 6664,8176 L 6706,7965 6780,7980 6853,7995 6811,8206 6737,8191 6664,8176 Z"/><path d="M 6780,7980 L 6706,7965 6708,7959 6780,7980 Z"/><path d="M 6708,7959 L 6763,7770 6835,7791 6907,7812 6852,8001 6780,7980 6708,7959 Z"/><path d="M 6835,7791 L 6763,7770 6765,7764 6835,7791 Z"/><path d="M 6765,7764 L 6797,7680 6867,7707 6937,7733 6905,7817 6835,7791 6765,7764 Z"/><path d="M 6867,7707 L 6797,7680 6798,7676 6867,7707 Z"/><path d="M 6798,7676 L 6832,7600 6901,7631 6969,7661 6935,7737 6867,7707 6798,7676 Z"/><path d="M 6901,7631 L 6832,7600 6835,7595 6901,7631 Z"/><path d="M 6835,7595 L 6870,7529 6936,7564 7003,7599 6967,7666 6901,7631 6835,7595 Z"/><path d="M 6936,7564 L 6870,7529 6874,7523 6936,7564 Z"/><path d="M 6874,7523 L 6911,7466 6974,7507 7036,7549 6999,7605 6936,7564 6874,7523 Z"/><path d="M 6974,7507 L 6911,7466 6917,7459 6974,7507 Z"/><path d="M 6917,7459 L 6955,7413 7012,7462 7070,7510 7031,7556 6974,7507 6917,7459 Z"/><path d="M 7012,7462 L 6955,7413 6961,7407 7012,7462 Z"/><path d="M 6961,7407 L 6981,7389 7032,7443 7083,7498 7064,7517 7012,7462 6961,7407 Z"/><path d="M 7032,7443 L 6981,7389 6986,7384 7032,7443 Z"/><path d="M 6986,7384 L 7006,7369 7052,7428 7098,7488 7078,7503 7032,7443 6986,7384 Z"/><path d="M 7052,7428 L 7006,7369 7013,7364 7052,7428 Z"/><path d="M 7013,7364 L 7033,7352 7072,7416 7111,7480 7091,7492 7052,7428 7013,7364 Z"/><path d="M 7072,7416 L 7033,7352 7042,7347 7072,7416 Z"/><path d="M 7042,7347 L 7062,7338 7092,7407 7122,7476 7102,7485 7072,7416 7042,7347 Z"/><path d="M 7092,7407 L 7062,7338 7073,7335 7092,7407 Z"/><path d="M 7073,7335 L 7094,7329 7113,7402 7132,7474 7112,7480 7092,7407 7073,7335 Z"/><path d="M 7113,7402 L 7094,7329 7106,7327 7113,7402 Z"/><path d="M 7106,7327 L 7126,7325 7133,7400 7140,7475 7119,7477 7113,7402 7106,7327 Z"/><path d="M 7133,7400 L 7126,7325 7133,7325 7133,7400 Z"/><path d="M 7133,7325 L 9301,7325 9301,7400 9301,7475 7133,7475 7133,7400 7133,7325 Z"/><path d="M 9301,7400 L 9301,7325 9314,7326 9327,7330 9338,7335 9349,7343 9358,7352 9366,7362 9371,7374 9375,7387 9376,7400 9375,7413 9371,7426 9366,7437 9358,7448 9349,7457 9339,7465 9327,7470 9314,7474 9308,7475 9301,7400 Z"/><path d="M 9308,7475 L 9287,7477 9281,7402 9274,7327 9294,7325 9301,7400 9308,7475 Z"/><path d="M 9281,7402 L 9262,7329 9274,7327 9281,7402 Z"/><path d="M 9300,7474 L 9280,7480 9260,7407 9241,7335 9262,7329 9281,7402 9300,7474 Z"/><path d="M 9260,7407 L 9230,7338 9241,7335 9260,7407 Z"/><path d="M 9290,7476 L 9270,7485 9240,7416 9210,7347 9230,7338 9260,7407 9290,7476 Z"/><path d="M 9240,7416 L 9201,7352 9210,7347 9240,7416 Z"/><path d="M 9279,7480 L 9259,7492 9220,7428 9181,7364 9201,7352 9240,7416 9279,7480 Z"/><path d="M 9220,7428 L 9174,7369 9181,7364 9220,7428 Z"/><path d="M 9266,7488 L 9246,7503 9200,7443 9154,7384 9174,7369 9220,7428 9266,7488 Z"/><path d="M 9200,7443 L 9149,7389 9154,7384 9200,7443 Z"/><path d="M 9251,7498 L 9232,7517 9180,7462 9129,7407 9149,7389 9200,7443 9251,7498 Z"/><path d="M 9180,7462 L 9123,7413 9129,7407 9180,7462 Z"/><path d="M 9238,7510 L 9199,7556 9142,7507 9084,7459 9123,7413 9180,7462 9238,7510 Z"/><path d="M 9142,7507 L 9079,7466 9084,7459 9142,7507 Z"/><path d="M 9204,7549 L 9167,7605 9104,7564 9042,7523 9079,7466 9142,7507 9204,7549 Z"/><path d="M 9104,7564 L 9038,7529 9042,7523 9104,7564 Z"/><path d="M 9170,7600 L 9134,7666 9068,7631 9002,7595 9038,7529 9104,7564 9170,7600 Z"/><path d="M 9068,7631 L 9000,7600 9002,7595 9068,7631 Z"/><path d="M 9137,7661 L 9103,7737 9034,7707 8966,7676 9000,7600 9068,7631 9137,7661 Z"/><path d="M 9034,7707 L 8964,7680 8966,7676 9034,7707 Z"/><path d="M 9105,7733 L 9073,7817 9003,7791 8932,7764 8964,7680 9034,7707 9105,7733 Z"/><path d="M 9003,7791 L 8931,7770 8932,7764 9003,7791 Z"/><path d="M 9075,7812 L 9019,8001 8947,7980 8875,7959 8931,7770 9003,7791 9075,7812 Z"/><path d="M 8947,7980 L 8874,7965 8875,7959 8947,7980 Z"/><path d="M 9021,7995 L 8978,8206 8904,8191 8831,8176 8874,7965 8947,7980 9021,7995 Z"/><path d="M 8904,8191 L 8830,8182 8831,8176 8904,8191 Z"/><path d="M 8979,8200 L 8951,8426 8877,8417 8802,8408 8830,8182 8904,8191 8979,8200 Z"/><path d="M 8877,8417 L 8802,8414 8802,8408 8877,8417 Z"/><path d="M 8952,8420 L 8942,8653 8867,8650 8792,8647 8802,8414 8877,8417 8952,8420 Z"/><path d="M 8867,8650 L 8792,8653 8792,8647 8867,8650 Z"/><path d="M 8942,8647 L 8952,8880 8877,8883 8802,8886 8792,8653 8867,8650 8942,8647 Z"/><path d="M 8877,8883 L 8802,8892 8802,8886 8877,8883 Z"/><path d="M 8951,8874 L 8979,9100 8904,9109 8830,9118 8802,8892 8877,8883 8951,8874 Z"/><path d="M 8904,9109 L 8831,9124 8830,9118 8904,9109 Z"/><path d="M 8978,9094 L 9021,9306 8947,9320 8874,9335 8831,9124 8904,9109 8978,9094 Z"/><path d="M 8947,9320 L 8875,9342 8874,9335 8947,9320 Z"/><path d="M 9019,9299 L 9075,9489 9003,9510 8931,9531 8875,9342 8947,9320 9019,9299 Z"/><path d="M 9003,9510 L 8932,9536 8931,9531 9003,9510 Z"/><path d="M 9073,9483 L 9105,9568 9034,9594 8964,9621 8932,9536 9003,9510 9073,9483 Z"/><path d="M 9034,9594 L 8966,9625 8964,9621 9034,9594 Z"/><path d="M 9103,9563 L 9137,9639 9068,9670 9000,9701 8966,9625 9034,9594 9103,9563 Z"/><path d="M 9068,9670 L 9002,9705 9000,9701 9068,9670 Z"/><path d="M 9134,9634 L 9170,9701 9104,9737 9038,9772 9002,9705 9068,9670 9134,9634 Z"/><path d="M 9104,9737 L 9042,9778 9038,9772 9104,9737 Z"/><path d="M 9167,9695 L 9204,9752 9142,9793 9079,9835 9042,9778 9104,9737 9167,9695 Z"/><path d="M 9142,9793 L 9084,9842 9079,9835 9142,9793 Z"/><path d="M 9199,9745 L 9238,9791 9180,9839 9123,9888 9084,9842 9142,9793 9199,9745 Z"/><path d="M 9180,9839 L 9129,9894 9123,9888 9180,9839 Z"/><path d="M 9232,9784 L 9251,9803 9200,9858 9149,9912 9129,9894 9180,9839 9232,9784 Z"/><path d="M 9200,9858 L 9154,9917 9149,9912 9200,9858 Z"/><path d="M 9246,9798 L 9266,9813 9220,9873 9174,9932 9154,9917 9200,9858 9246,9798 Z"/><path d="M 9220,9873 L 9181,9937 9174,9932 9220,9873 Z"/><path d="M 9259,9809 L 9279,9821 9240,9885 9201,9949 9181,9937 9220,9873 9259,9809 Z"/><path d="M 9240,9885 L 9210,9954 9201,9949 9240,9885 Z"/><path d="M 9270,9816 L 9290,9825 9260,9894 9230,9963 9210,9954 9240,9885 9270,9816 Z"/><path d="M 9260,9894 L 9241,9966 9230,9963 9260,9894 Z"/><path d="M 9280,9821 L 9300,9827 9281,9899 9261,9972 9241,9966 9260,9894 9280,9821 Z"/><path d="M 9281,9899 L 9274,9974 9261,9972 9281,9899 Z"/><path d="M 9287,9824 L 9308,9826 9301,9901 9294,9976 9274,9974 9281,9899 9287,9824 Z"/><path d="M 9301,9901 L 9308,9826 9321,9829 9333,9833 9344,9840 9354,9848 9363,9858 9369,9869 9373,9882 9376,9895 9376,9908 9373,9921 9369,9933 9362,9944 9354,9954 9344,9963 9333,9969 9320,9973 9307,9976 9301,9976 9301,9901 Z"/><path d="M 9301,9976 L 7133,9976 7133,9901 7133,9826 9301,9826 9301,9901 9301,9976 Z"/><path d="M 7133,9901 L 7133,9976 7126,9976 7133,9901 Z"/></g><g/></g></g><g><desc>Drawing</desc><g><g style="stroke:none;fill:rgb(0,102,204)"><path d="M 8944,5215 L 8930,5214 8917,5211 8903,5206 8890,5199 8877,5190 8863,5180 8838,5154 8812,5122 8789,5084 8766,5041 8745,4994 8725,4942 8708,4887 8679,4767 8661,4639 8654,4507 8661,4375 8679,4247 8708,4127 8725,4072 8745,4020 8766,3973 8789,3930 8812,3892 8838,3860 8863,3834 8877,3824 8890,3815 8903,3808 8917,3803 8930,3800 8944,3799 10397,3799 10383,3800 10370,3803 10356,3808 10343,3815 10329,3824 10316,3834 10290,3860 10265,3892 10241,3930 10218,3973 10197,4020 10177,4072 10160,4127 10131,4247 10113,4375 10106,4507 10113,4639 10131,4767 10160,4887 10177,4942 10197,4994 10218,5041 10241,5084 10265,5122 10290,5154 10316,5180 10329,5190 10343,5199 10356,5206 10370,5211 10383,5214 10397,5215 8944,5215 Z"/></g><g style="stroke:none;fill:rgb(255,255,255)"><path d="M 8938,5290 L 8925,5289 8930,5214 8936,5139 8950,5140 8944,5215 8938,5290 Z"/><path d="M 8930,5214 L 8925,5289 8914,5287 8930,5214 Z"/><path d="M 8914,5287 L 8900,5284 8917,5211 8933,5138 8947,5141 8930,5214 8914,5287 Z"/><path d="M 8917,5211 L 8900,5284 8891,5281 8917,5211 Z"/><path d="M 8891,5281 L 8877,5276 8903,5206 8929,5136 8943,5141 8917,5211 8891,5281 Z"/><path d="M 8903,5206 L 8877,5276 8869,5273 8903,5206 Z"/><path d="M 8869,5273 L 8856,5266 8890,5199 8924,5132 8937,5139 8903,5206 8869,5273 Z"/><path d="M 8890,5199 L 8856,5266 8849,5262 8890,5199 Z"/><path d="M 8849,5262 L 8836,5253 8877,5190 8918,5128 8931,5136 8890,5199 8849,5262 Z"/><path d="M 8877,5190 L 8836,5253 8830,5249 8877,5190 Z"/><path d="M 8830,5249 L 8817,5239 8863,5180 8910,5121 8923,5132 8877,5190 8830,5249 Z"/><path d="M 8863,5180 L 8817,5239 8810,5233 8863,5180 Z"/><path d="M 8810,5233 L 8785,5207 8838,5154 8891,5101 8916,5127 8863,5180 8810,5233 Z"/><path d="M 8838,5154 L 8785,5207 8778,5200 8838,5154 Z"/><path d="M 8778,5200 L 8753,5168 8812,5122 8872,5076 8897,5108 8838,5154 8778,5200 Z"/><path d="M 8812,5122 L 8753,5168 8749,5162 8812,5122 Z"/><path d="M 8749,5162 L 8725,5125 8789,5084 8852,5044 8876,5082 8812,5122 8749,5162 Z"/><path d="M 8789,5084 L 8725,5125 8722,5119 8789,5084 Z"/><path d="M 8722,5119 L 8700,5076 8766,5041 8832,5006 8855,5049 8789,5084 8722,5119 Z"/><path d="M 8766,5041 L 8700,5076 8697,5072 8766,5041 Z"/><path d="M 8697,5072 L 8676,5024 8745,4994 8813,4963 8834,5011 8766,5041 8697,5072 Z"/><path d="M 8745,4994 L 8676,5024 8674,5020 8745,4994 Z"/><path d="M 8674,5020 L 8655,4968 8725,4942 8795,4916 8815,4967 8745,4994 8674,5020 Z"/><path d="M 8725,4942 L 8655,4968 8654,4965 8725,4942 Z"/><path d="M 8654,4965 L 8636,4909 8708,4887 8779,4864 8797,4919 8725,4942 8654,4965 Z"/><path d="M 8708,4887 L 8636,4909 8635,4904 8708,4887 Z"/><path d="M 8635,4904 L 8606,4784 8679,4767 8752,4750 8780,4869 8708,4887 8635,4904 Z"/><path d="M 8679,4767 L 8606,4784 8605,4778 8679,4767 Z"/><path d="M 8605,4778 L 8586,4650 8661,4639 8735,4628 8753,4756 8679,4767 8605,4778 Z"/><path d="M 8661,4639 L 8586,4650 8586,4643 8661,4639 Z"/><path d="M 8586,4643 L 8579,4511 8654,4507 8729,4503 8735,4635 8661,4639 8586,4643 Z"/><path d="M 8654,4507 L 8579,4511 8579,4503 8654,4507 Z"/><path d="M 8579,4503 L 8586,4371 8661,4375 8735,4379 8729,4511 8654,4507 8579,4503 Z"/><path d="M 8661,4375 L 8586,4371 8586,4364 8661,4375 Z"/><path d="M 8586,4364 L 8605,4236 8679,4247 8753,4258 8735,4386 8661,4375 8586,4364 Z"/><path d="M 8679,4247 L 8605,4236 8606,4230 8679,4247 Z"/><path d="M 8606,4230 L 8635,4110 8708,4127 8780,4145 8752,4264 8679,4247 8606,4230 Z"/><path d="M 8708,4127 L 8635,4110 8636,4105 8708,4127 Z"/><path d="M 8636,4105 L 8654,4049 8725,4072 8797,4095 8779,4150 8708,4127 8636,4105 Z"/><path d="M 8725,4072 L 8654,4049 8655,4046 8725,4072 Z"/><path d="M 8655,4046 L 8674,3994 8745,4020 8815,4047 8795,4098 8725,4072 8655,4046 Z"/><path d="M 8745,4020 L 8674,3994 8676,3990 8745,4020 Z"/><path d="M 8676,3990 L 8697,3942 8766,3973 8834,4003 8813,4051 8745,4020 8676,3990 Z"/><path d="M 8766,3973 L 8697,3942 8700,3938 8766,3973 Z"/><path d="M 8700,3938 L 8722,3895 8789,3930 8855,3965 8832,4008 8766,3973 8700,3938 Z"/><path d="M 8789,3930 L 8722,3895 8725,3889 8789,3930 Z"/><path d="M 8725,3889 L 8749,3852 8812,3892 8876,3932 8852,3970 8789,3930 8725,3889 Z"/><path d="M 8812,3892 L 8749,3852 8753,3846 8812,3892 Z"/><path d="M 8753,3846 L 8778,3814 8838,3860 8897,3906 8872,3938 8812,3892 8753,3846 Z"/><path d="M 8838,3860 L 8778,3814 8785,3807 8838,3860 Z"/><path d="M 8785,3807 L 8810,3781 8863,3834 8916,3887 8891,3913 8838,3860 8785,3807 Z"/><path d="M 8863,3834 L 8810,3781 8817,3775 8863,3834 Z"/><path d="M 8817,3775 L 8830,3765 8877,3824 8923,3882 8910,3893 8863,3834 8817,3775 Z"/><path d="M 8877,3824 L 8830,3765 8836,3761 8877,3824 Z"/><path d="M 8836,3761 L 8849,3752 8890,3815 8931,3878 8918,3886 8877,3824 8836,3761 Z"/><path d="M 8890,3815 L 8849,3752 8856,3748 8890,3815 Z"/><path d="M 8856,3748 L 8869,3741 8903,3808 8937,3875 8924,3882 8890,3815 8856,3748 Z"/><path d="M 8903,3808 L 8869,3741 8877,3738 8903,3808 Z"/><path d="M 8877,3738 L 8891,3733 8917,3803 8943,3873 8929,3878 8903,3808 8877,3738 Z"/><path d="M 8917,3803 L 8891,3733 8900,3730 8917,3803 Z"/><path d="M 8900,3730 L 8914,3727 8930,3800 8947,3873 8933,3876 8917,3803 8900,3730 Z"/><path d="M 8930,3800 L 8914,3727 8925,3725 8930,3800 Z"/><path d="M 8925,3725 L 8938,3724 8944,3799 8950,3874 8936,3875 8930,3800 8925,3725 Z"/><path d="M 8944,3799 L 8938,3724 8944,3724 8944,3799 Z"/><path d="M 8944,3724 L 10397,3724 10397,3799 10397,3874 8944,3874 8944,3799 8944,3724 Z"/><path d="M 10397,3799 L 10397,3724 10410,3725 10423,3729 10434,3734 10445,3742 10454,3751 10462,3761 10467,3773 10471,3786 10472,3799 10471,3812 10467,3825 10462,3836 10454,3847 10445,3856 10435,3864 10423,3869 10410,3873 10403,3874 10397,3799 Z"/><path d="M 10403,3874 L 10389,3875 10383,3800 10378,3725 10391,3724 10397,3799 10403,3874 Z"/><path d="M 10383,3800 L 10367,3727 10378,3725 10383,3800 Z"/><path d="M 10400,3873 L 10386,3876 10370,3803 10353,3730 10367,3727 10383,3800 10400,3873 Z"/><path d="M 10370,3803 L 10344,3733 10353,3730 10370,3803 Z"/><path d="M 10395,3873 L 10382,3878 10356,3808 10330,3738 10344,3733 10370,3803 10395,3873 Z"/><path d="M 10356,3808 L 10322,3741 10330,3738 10356,3808 Z"/><path d="M 10390,3875 L 10377,3882 10343,3815 10309,3748 10322,3741 10356,3808 10390,3875 Z"/><path d="M 10343,3815 L 10302,3752 10309,3748 10343,3815 Z"/><path d="M 10383,3878 L 10370,3887 10329,3824 10288,3761 10302,3752 10343,3815 10383,3878 Z"/><path d="M 10329,3824 L 10283,3765 10288,3761 10329,3824 Z"/><path d="M 10376,3883 L 10362,3893 10316,3834 10270,3775 10283,3765 10329,3824 10376,3883 Z"/><path d="M 10316,3834 L 10263,3781 10270,3775 10316,3834 Z"/><path d="M 10369,3887 L 10343,3913 10290,3860 10237,3807 10263,3781 10316,3834 10369,3887 Z"/><path d="M 10290,3860 L 10231,3814 10237,3807 10290,3860 Z"/><path d="M 10349,3906 L 10324,3938 10265,3892 10206,3846 10231,3814 10290,3860 10349,3906 Z"/><path d="M 10265,3892 L 10202,3852 10206,3846 10265,3892 Z"/><path d="M 10328,3932 L 10304,3970 10241,3930 10178,3889 10202,3852 10265,3892 10328,3932 Z"/><path d="M 10241,3930 L 10174,3895 10178,3889 10241,3930 Z"/><path d="M 10307,3965 L 10284,4008 10218,3973 10152,3938 10174,3895 10241,3930 10307,3965 Z"/><path d="M 10218,3973 L 10150,3942 10152,3938 10218,3973 Z"/><path d="M 10286,4003 L 10265,4051 10197,4020 10128,3990 10150,3942 10218,3973 10286,4003 Z"/><path d="M 10197,4020 L 10127,3994 10128,3990 10197,4020 Z"/><path d="M 10267,4047 L 10247,4099 10177,4072 10107,4046 10127,3994 10197,4020 10267,4047 Z"/><path d="M 10177,4072 L 10106,4049 10107,4046 10177,4072 Z"/><path d="M 10249,4095 L 10231,4150 10160,4127 10088,4105 10106,4049 10177,4072 10249,4095 Z"/><path d="M 10160,4127 L 10087,4110 10088,4105 10160,4127 Z"/><path d="M 10233,4145 L 10204,4264 10131,4247 10058,4230 10087,4110 10160,4127 10233,4145 Z"/><path d="M 10131,4247 L 10057,4236 10058,4230 10131,4247 Z"/><path d="M 10205,4258 L 10187,4386 10113,4375 10038,4364 10057,4236 10131,4247 10205,4258 Z"/><path d="M 10113,4375 L 10038,4371 10038,4364 10113,4375 Z"/><path d="M 10187,4379 L 10181,4511 10106,4507 10031,4503 10038,4371 10113,4375 10187,4379 Z"/><path d="M 10106,4507 L 10031,4511 10031,4503 10106,4507 Z"/><path d="M 10181,4503 L 10187,4635 10113,4639 10038,4643 10031,4511 10106,4507 10181,4503 Z"/><path d="M 10113,4639 L 10038,4650 10038,4643 10113,4639 Z"/><path d="M 10187,4628 L 10205,4756 10131,4767 10057,4778 10038,4650 10113,4639 10187,4628 Z"/><path d="M 10131,4767 L 10058,4784 10057,4778 10131,4767 Z"/><path d="M 10204,4750 L 10233,4869 10160,4887 10087,4904 10058,4784 10131,4767 10204,4750 Z"/><path d="M 10160,4887 L 10088,4909 10087,4904 10160,4887 Z"/><path d="M 10231,4864 L 10249,4919 10177,4942 10106,4965 10088,4909 10160,4887 10231,4864 Z"/><path d="M 10177,4942 L 10107,4968 10106,4965 10177,4942 Z"/><path d="M 10247,4915 L 10267,4967 10197,4994 10127,5020 10107,4968 10177,4942 10247,4915 Z"/><path d="M 10197,4994 L 10128,5024 10127,5020 10197,4994 Z"/><path d="M 10265,4963 L 10286,5011 10218,5041 10150,5072 10128,5024 10197,4994 10265,4963 Z"/><path d="M 10218,5041 L 10152,5076 10150,5072 10218,5041 Z"/><path d="M 10284,5006 L 10307,5049 10241,5084 10174,5119 10152,5076 10218,5041 10284,5006 Z"/><path d="M 10241,5084 L 10178,5125 10174,5119 10241,5084 Z"/><path d="M 10304,5044 L 10328,5082 10265,5122 10202,5162 10178,5125 10241,5084 10304,5044 Z"/><path d="M 10265,5122 L 10206,5168 10202,5162 10265,5122 Z"/><path d="M 10324,5076 L 10349,5108 10290,5154 10231,5200 10206,5168 10265,5122 10324,5076 Z"/><path d="M 10290,5154 L 10237,5207 10231,5200 10290,5154 Z"/><path d="M 10343,5101 L 10369,5127 10316,5180 10263,5233 10237,5207 10290,5154 10343,5101 Z"/><path d="M 10316,5180 L 10270,5239 10263,5233 10316,5180 Z"/><path d="M 10362,5121 L 10376,5131 10329,5190 10283,5249 10270,5239 10316,5180 10362,5121 Z"/><path d="M 10329,5190 L 10288,5253 10283,5249 10329,5190 Z"/><path d="M 10370,5127 L 10383,5136 10343,5199 10302,5262 10288,5253 10329,5190 10370,5127 Z"/><path d="M 10343,5199 L 10309,5266 10302,5262 10343,5199 Z"/><path d="M 10377,5132 L 10390,5139 10356,5206 10322,5273 10309,5266 10343,5199 10377,5132 Z"/><path d="M 10356,5206 L 10330,5276 10322,5273 10356,5206 Z"/><path d="M 10382,5136 L 10395,5141 10370,5211 10344,5281 10330,5276 10356,5206 10382,5136 Z"/><path d="M 10370,5211 L 10353,5284 10344,5281 10370,5211 Z"/><path d="M 10386,5138 L 10400,5141 10383,5214 10367,5287 10353,5284 10370,5211 10386,5138 Z"/><path d="M 10383,5214 L 10378,5289 10367,5287 10383,5214 Z"/><path d="M 10389,5139 L 10403,5140 10397,5215 10391,5290 10378,5289 10383,5214 10389,5139 Z"/><path d="M 10397,5215 L 10403,5140 10416,5142 10428,5147 10439,5153 10449,5161 10458,5171 10465,5182 10469,5195 10472,5208 10472,5221 10470,5234 10465,5246 10459,5257 10451,5267 10441,5276 10430,5283 10417,5287 10404,5290 10397,5290 10397,5215 Z"/><path d="M 10397,5290 L 8944,5290 8944,5215 8944,5140 10397,5140 10397,5215 10397,5290 Z"/><path d="M 8944,5215 L 8944,5290 8938,5290 8944,5215 Z"/></g><g/></g></g><g><desc>Drawing</desc><g><g style="stroke:none;fill:rgb(0,102,204)"><path d="M 8633,7401 L 8613,7399 8592,7394 8572,7386 8552,7375 8532,7361 8512,7344 8474,7302 8436,7250 8401,7188 8367,7119 8335,7041 8280,6867 8237,6672 8210,6465 8200,6250 8210,6035 8237,5828 8280,5633 8335,5459 8367,5382 8401,5312 8436,5251 8474,5199 8512,5157 8532,5140 8552,5126 8572,5115 8592,5107 8613,5102 8633,5100 10801,5100 10781,5102 10760,5107 10740,5115 10720,5126 10700,5140 10680,5157 10642,5199 10604,5251 10568,5312 10534,5382 10503,5459 10447,5633 10404,5828 10377,6035 10367,6250 10377,6465 10404,6672 10447,6867 10503,7041 10534,7119 10568,7188 10604,7250 10642,7302 10680,7344 10700,7361 10720,7375 10740,7386 10760,7394 10781,7399 10801,7401 8633,7401 Z"/></g><g style="stroke:none;fill:rgb(255,255,255)"><path d="M 8627,7476 L 8607,7474 8613,7399 8619,7325 8639,7326 8633,7401 8627,7476 Z"/><path d="M 8613,7399 L 8607,7474 8595,7472 8613,7399 Z"/><path d="M 8595,7472 L 8575,7467 8592,7394 8610,7322 8630,7326 8613,7399 8595,7472 Z"/><path d="M 8592,7394 L 8575,7467 8564,7464 8592,7394 Z"/><path d="M 8564,7464 L 8544,7456 8572,7386 8600,7317 8620,7325 8592,7394 8564,7464 Z"/><path d="M 8572,7386 L 8544,7456 8536,7452 8572,7386 Z"/><path d="M 8536,7452 L 8516,7441 8552,7375 8589,7310 8609,7321 8572,7386 8536,7452 Z"/><path d="M 8552,7375 L 8516,7441 8509,7436 8552,7375 Z"/><path d="M 8509,7436 L 8489,7422 8532,7361 8576,7300 8595,7314 8552,7375 8509,7436 Z"/><path d="M 8532,7361 L 8489,7422 8483,7418 8532,7361 Z"/><path d="M 8483,7418 L 8464,7401 8512,7344 8561,7287 8581,7304 8532,7361 8483,7418 Z"/><path d="M 8512,7344 L 8464,7401 8457,7395 8512,7344 Z"/><path d="M 8457,7395 L 8419,7353 8474,7302 8529,7251 8568,7293 8512,7344 8457,7395 Z"/><path d="M 8474,7302 L 8419,7353 8413,7346 8474,7302 Z"/><path d="M 8413,7346 L 8375,7294 8436,7250 8497,7206 8535,7258 8474,7302 8413,7346 Z"/><path d="M 8436,7250 L 8375,7294 8372,7288 8436,7250 Z"/><path d="M 8372,7288 L 8336,7226 8401,7188 8465,7151 8501,7212 8436,7250 8372,7288 Z"/><path d="M 8401,7188 L 8336,7226 8333,7221 8401,7188 Z"/><path d="M 8333,7221 L 8299,7151 8367,7119 8434,7086 8468,7156 8401,7188 8333,7221 Z"/><path d="M 8367,7119 L 8299,7151 8297,7147 8367,7119 Z"/><path d="M 8297,7147 L 8266,7069 8335,7041 8405,7013 8436,7090 8367,7119 8297,7147 Z"/><path d="M 8335,7041 L 8266,7069 8264,7064 8335,7041 Z"/><path d="M 8264,7064 L 8208,6890 8280,6867 8351,6844 8407,7018 8335,7041 8264,7064 Z"/><path d="M 8280,6867 L 8208,6890 8207,6883 8280,6867 Z"/><path d="M 8207,6883 L 8164,6688 8237,6672 8310,6656 8353,6851 8280,6867 8207,6883 Z"/><path d="M 8237,6672 L 8164,6688 8163,6682 8237,6672 Z"/><path d="M 8163,6682 L 8135,6474 8210,6465 8284,6455 8311,6663 8237,6672 8163,6682 Z"/><path d="M 8210,6465 L 8135,6474 8135,6468 8210,6465 Z"/><path d="M 8135,6468 L 8125,6253 8200,6250 8275,6247 8285,6461 8210,6465 8135,6468 Z"/><path d="M 8200,6250 L 8125,6253 8125,6247 8200,6250 Z"/><path d="M 8125,6247 L 8135,6032 8210,6035 8285,6039 8275,6253 8200,6250 8125,6247 Z"/><path d="M 8210,6035 L 8135,6032 8135,6026 8210,6035 Z"/><path d="M 8135,6026 L 8163,5818 8237,5828 8311,5838 8284,6045 8210,6035 8135,6026 Z"/><path d="M 8237,5828 L 8163,5818 8164,5812 8237,5828 Z"/><path d="M 8164,5812 L 8207,5617 8280,5633 8353,5650 8310,5844 8237,5828 8164,5812 Z"/><path d="M 8280,5633 L 8207,5617 8208,5611 8280,5633 Z"/><path d="M 8208,5611 L 8264,5437 8335,5459 8407,5482 8351,5656 8280,5633 8208,5611 Z"/><path d="M 8335,5459 L 8264,5437 8266,5431 8335,5459 Z"/><path d="M 8266,5431 L 8297,5354 8367,5382 8436,5410 8405,5488 8335,5459 8266,5431 Z"/><path d="M 8367,5382 L 8297,5354 8299,5349 8367,5382 Z"/><path d="M 8299,5349 L 8333,5280 8401,5312 8468,5345 8434,5415 8367,5382 8299,5349 Z"/><path d="M 8401,5312 L 8333,5280 8336,5274 8401,5312 Z"/><path d="M 8336,5274 L 8372,5213 8436,5251 8501,5289 8465,5350 8401,5312 8336,5274 Z"/><path d="M 8436,5251 L 8372,5213 8375,5207 8436,5251 Z"/><path d="M 8375,5207 L 8413,5155 8474,5199 8535,5243 8497,5295 8436,5251 8375,5207 Z"/><path d="M 8474,5199 L 8413,5155 8419,5148 8474,5199 Z"/><path d="M 8419,5148 L 8457,5106 8512,5157 8568,5208 8529,5250 8474,5199 8419,5148 Z"/><path d="M 8512,5157 L 8457,5106 8464,5100 8512,5157 Z"/><path d="M 8464,5100 L 8483,5083 8532,5140 8581,5197 8561,5214 8512,5157 8464,5100 Z"/><path d="M 8532,5140 L 8483,5083 8489,5079 8532,5140 Z"/><path d="M 8489,5079 L 8509,5065 8552,5126 8595,5187 8575,5201 8532,5140 8489,5079 Z"/><path d="M 8552,5126 L 8509,5065 8516,5060 8552,5126 Z"/><path d="M 8516,5060 L 8536,5049 8572,5115 8609,5180 8588,5191 8552,5126 8516,5060 Z"/><path d="M 8572,5115 L 8536,5049 8544,5045 8572,5115 Z"/><path d="M 8544,5045 L 8564,5037 8592,5107 8620,5176 8600,5184 8572,5115 8544,5045 Z"/><path d="M 8592,5107 L 8564,5037 8575,5034 8592,5107 Z"/><path d="M 8575,5034 L 8595,5029 8613,5102 8630,5175 8610,5179 8592,5107 8575,5034 Z"/><path d="M 8613,5102 L 8595,5029 8607,5027 8613,5102 Z"/><path d="M 8607,5027 L 8627,5025 8633,5100 8639,5175 8619,5176 8613,5102 8607,5027 Z"/><path d="M 8633,5100 L 8627,5025 8633,5025 8633,5100 Z"/><path d="M 8633,5025 L 10801,5025 10801,5100 10801,5175 8633,5175 8633,5100 8633,5025 Z"/><path d="M 10801,5100 L 10801,5025 10814,5026 10827,5030 10838,5035 10849,5043 10858,5052 10866,5062 10871,5074 10875,5087 10876,5100 10875,5113 10871,5126 10866,5137 10858,5148 10849,5157 10839,5165 10827,5170 10814,5174 10807,5175 10801,5100 Z"/><path d="M 10807,5175 L 10787,5176 10781,5102 10775,5027 10795,5025 10801,5100 10807,5175 Z"/><path d="M 10781,5102 L 10763,5029 10775,5027 10781,5102 Z"/><path d="M 10798,5175 L 10778,5179 10760,5107 10743,5034 10763,5029 10781,5102 10798,5175 Z"/><path d="M 10760,5107 L 10733,5037 10743,5034 10760,5107 Z"/><path d="M 10788,5176 L 10768,5184 10740,5115 10712,5045 10733,5037 10760,5107 10788,5176 Z"/><path d="M 10740,5115 L 10704,5049 10712,5045 10740,5115 Z"/><path d="M 10777,5180 L 10756,5191 10720,5126 10684,5060 10704,5049 10740,5115 10777,5180 Z"/><path d="M 10720,5126 L 10677,5065 10684,5060 10720,5126 Z"/><path d="M 10763,5187 L 10743,5201 10700,5140 10657,5079 10677,5065 10720,5126 10763,5187 Z"/><path d="M 10700,5140 L 10651,5083 10657,5079 10700,5140 Z"/><path d="M 10749,5197 L 10729,5214 10680,5157 10632,5100 10651,5083 10700,5140 10749,5197 Z"/><path d="M 10680,5157 L 10625,5106 10632,5100 10680,5157 Z"/><path d="M 10735,5208 L 10697,5250 10642,5199 10587,5148 10625,5106 10680,5157 10735,5208 Z"/><path d="M 10642,5199 L 10581,5155 10587,5148 10642,5199 Z"/><path d="M 10703,5243 L 10665,5295 10604,5251 10543,5207 10581,5155 10642,5199 10703,5243 Z"/><path d="M 10604,5251 L 10539,5213 10543,5207 10604,5251 Z"/><path d="M 10669,5289 L 10633,5350 10568,5312 10504,5274 10539,5213 10604,5251 10669,5289 Z"/><path d="M 10568,5312 L 10501,5279 10504,5274 10568,5312 Z"/><path d="M 10636,5345 L 10602,5415 10534,5382 10467,5349 10501,5279 10568,5312 10636,5345 Z"/><path d="M 10534,5382 L 10465,5354 10467,5349 10534,5382 Z"/><path d="M 10604,5410 L 10572,5488 10503,5459 10433,5431 10465,5354 10534,5382 10604,5410 Z"/><path d="M 10503,5459 L 10431,5437 10433,5431 10503,5459 Z"/><path d="M 10574,5482 L 10519,5656 10447,5633 10376,5611 10431,5437 10503,5459 10574,5482 Z"/><path d="M 10447,5633 L 10374,5617 10376,5611 10447,5633 Z"/><path d="M 10520,5650 L 10478,5844 10404,5828 10331,5812 10374,5617 10447,5633 10520,5650 Z"/><path d="M 10404,5828 L 10330,5818 10331,5812 10404,5828 Z"/><path d="M 10479,5838 L 10451,6045 10377,6035 10302,6026 10330,5818 10404,5828 10479,5838 Z"/><path d="M 10377,6035 L 10302,6032 10302,6026 10377,6035 Z"/><path d="M 10452,6039 L 10442,6253 10367,6250 10292,6247 10302,6032 10377,6035 10452,6039 Z"/><path d="M 10367,6250 L 10292,6253 10292,6247 10367,6250 Z"/><path d="M 10442,6247 L 10452,6461 10377,6465 10302,6468 10292,6253 10367,6250 10442,6247 Z"/><path d="M 10377,6465 L 10302,6474 10302,6468 10377,6465 Z"/><path d="M 10451,6455 L 10479,6663 10404,6672 10330,6682 10302,6474 10377,6465 10451,6455 Z"/><path d="M 10404,6672 L 10331,6689 10330,6682 10404,6672 Z"/><path d="M 10478,6656 L 10520,6851 10447,6867 10374,6883 10331,6689 10404,6672 10478,6656 Z"/><path d="M 10447,6867 L 10376,6890 10374,6883 10447,6867 Z"/><path d="M 10519,6844 L 10574,7018 10503,7041 10431,7064 10376,6890 10447,6867 10519,6844 Z"/><path d="M 10503,7041 L 10433,7070 10431,7064 10503,7041 Z"/><path d="M 10572,7013 L 10604,7090 10534,7119 10465,7147 10433,7070 10503,7041 10572,7013 Z"/><path d="M 10534,7119 L 10467,7151 10465,7147 10534,7119 Z"/><path d="M 10602,7086 L 10636,7156 10568,7188 10501,7221 10467,7151 10534,7119 10602,7086 Z"/><path d="M 10568,7188 L 10504,7226 10501,7221 10568,7188 Z"/><path d="M 10633,7151 L 10669,7212 10604,7250 10539,7288 10504,7226 10568,7188 10633,7151 Z"/><path d="M 10604,7250 L 10543,7294 10539,7288 10604,7250 Z"/><path d="M 10665,7206 L 10703,7258 10642,7302 10581,7346 10543,7294 10604,7250 10665,7206 Z"/><path d="M 10642,7302 L 10586,7353 10581,7346 10642,7302 Z"/><path d="M 10697,7251 L 10736,7293 10680,7344 10625,7395 10586,7353 10642,7302 10697,7251 Z"/><path d="M 10680,7344 L 10631,7401 10625,7395 10680,7344 Z"/><path d="M 10729,7287 L 10749,7304 10700,7361 10651,7418 10631,7401 10680,7344 10729,7287 Z"/><path d="M 10700,7361 L 10657,7422 10651,7418 10700,7361 Z"/><path d="M 10743,7300 L 10763,7314 10720,7375 10677,7436 10657,7422 10700,7361 10743,7300 Z"/><path d="M 10720,7375 L 10684,7441 10677,7436 10720,7375 Z"/><path d="M 10756,7310 L 10777,7321 10740,7386 10704,7452 10684,7441 10720,7375 10756,7310 Z"/><path d="M 10740,7386 L 10712,7456 10704,7452 10740,7386 Z"/><path d="M 10768,7317 L 10788,7325 10760,7394 10732,7464 10712,7456 10740,7386 10768,7317 Z"/><path d="M 10760,7394 L 10743,7467 10732,7464 10760,7394 Z"/><path d="M 10778,7322 L 10798,7326 10781,7399 10763,7472 10743,7467 10760,7394 10778,7322 Z"/><path d="M 10781,7399 L 10775,7474 10763,7472 10781,7399 Z"/><path d="M 10787,7325 L 10807,7326 10801,7401 10795,7476 10775,7474 10781,7399 10787,7325 Z"/><path d="M 10801,7401 L 10807,7326 10820,7328 10832,7333 10844,7339 10854,7348 10862,7358 10869,7369 10873,7381 10876,7394 10876,7407 10874,7420 10869,7432 10863,7444 10854,7454 10844,7462 10833,7469 10821,7473 10808,7476 10801,7476 10801,7401 Z"/><path d="M 10801,7476 L 8633,7476 8633,7401 8633,7326 10801,7326 10801,7401 10801,7476 Z"/><path d="M 8633,7401 L 8633,7476 8627,7476 8633,7401 Z"/></g><g/></g></g><g><desc>Drawing</desc><g><g style="stroke:none;fill:rgb(0,102,204)"><path d="M 8166,10900 L 8135,10897 8104,10889 8073,10874 8042,10855 8011,10831 7981,10801 7921,10728 7864,10638 7809,10531 7757,10410 7708,10275 7623,9972 7557,9634 7515,9273 7500,8900 7515,8527 7557,8166 7623,7828 7708,7525 7757,7390 7809,7269 7864,7162 7921,7072 7981,6999 8011,6969 8042,6945 8073,6926 8104,6911 8135,6903 8166,6900 11500,6900 11469,6903 11438,6911 11407,6926 11376,6945 11345,6969 11315,6999 11255,7072 11198,7162 11143,7269 11091,7390 11042,7525 10957,7828 10891,8166 10849,8527 10834,8900 10849,9273 10891,9634 10957,9972 11042,10275 11091,10410 11143,10531 11198,10638 11255,10728 11315,10801 11345,10831 11376,10855 11407,10874 11438,10889 11469,10897 11500,10900 8166,10900 Z"/></g><g style="stroke:none;fill:rgb(255,255,255)"><path d="M 8159,10975 L 8128,10972 8135,10897 8142,10822 8173,10825 8166,10900 8159,10975 Z"/><path d="M 8135,10897 L 8128,10972 8115,10969 8115,10969 8135,10897 Z"/><path d="M 8115,10969 L 8084,10961 8104,10889 8124,10816 8155,10825 8135,10897 8115,10969 Z"/><path d="M 8104,10889 L 8084,10961 8073,10957 8104,10889 Z"/><path d="M 8073,10957 L 8042,10943 8073,10874 8104,10806 8135,10820 8104,10889 8073,10957 Z"/><path d="M 8073,10874 L 8042,10943 8033,10938 8073,10874 Z"/><path d="M 8033,10938 L 8002,10919 8042,10855 8082,10792 8113,10811 8073,10874 8033,10938 Z"/><path d="M 8042,10855 L 8002,10919 7995,10914 8042,10855 Z"/><path d="M 7995,10914 L 7964,10889 8011,10831 8058,10772 8089,10797 8042,10855 7995,10914 Z"/><path d="M 8011,10831 L 7964,10889 7959,10884 8011,10831 Z"/><path d="M 7959,10884 L 7929,10855 7981,10801 8033,10747 8063,10777 8011,10831 7959,10884 Z"/><path d="M 7981,10801 L 7929,10855 7923,10848 7981,10801 Z"/><path d="M 7923,10848 L 7863,10775 7921,10728 7980,10681 8039,10754 7981,10801 7923,10848 Z"/><path d="M 7921,10728 L 7863,10775 7858,10768 7921,10728 Z"/><path d="M 7858,10768 L 7801,10678 7864,10638 7927,10597 7985,10688 7921,10728 7858,10768 Z"/><path d="M 7864,10638 L 7801,10678 7797,10672 7864,10638 Z"/><path d="M 7797,10672 L 7742,10565 7809,10531 7876,10496 7931,10603 7864,10638 7797,10672 Z"/><path d="M 7809,10531 L 7742,10565 7740,10560 7809,10531 Z"/><path d="M 7740,10560 L 7688,10439 7757,10410 7826,10380 7878,10501 7809,10531 7740,10560 Z"/><path d="M 7757,10410 L 7688,10439 7686,10435 7757,10410 Z"/><path d="M 7686,10435 L 7638,10301 7708,10275 7779,10249 7827,10384 7757,10410 7686,10435 Z"/><path d="M 7708,10275 L 7638,10301 7636,10295 7708,10275 Z"/><path d="M 7636,10295 L 7551,9993 7623,9972 7695,9952 7780,10255 7708,10275 7636,10295 Z"/><path d="M 7623,9972 L 7551,9993 7549,9987 7623,9972 Z"/><path d="M 7549,9987 L 7484,9649 7557,9634 7631,9620 7697,9958 7623,9972 7549,9987 Z"/><path d="M 7557,9634 L 7484,9649 7483,9643 7557,9634 Z"/><path d="M 7483,9643 L 7440,9282 7515,9273 7589,9264 7632,9626 7557,9634 7483,9643 Z"/><path d="M 7515,9273 L 7440,9282 7440,9276 7515,9273 Z"/><path d="M 7440,9276 L 7425,8903 7500,8900 7575,8897 7590,9270 7515,9273 7440,9276 Z"/><path d="M 7500,8900 L 7425,8903 7425,8897 7500,8900 Z"/><path d="M 7425,8897 L 7440,8524 7515,8527 7590,8530 7575,8903 7500,8900 7425,8897 Z"/><path d="M 7515,8527 L 7440,8524 7440,8518 7515,8527 Z"/><path d="M 7440,8518 L 7483,8157 7557,8166 7632,8174 7589,8536 7515,8527 7440,8518 Z"/><path d="M 7557,8166 L 7483,8157 7484,8151 7557,8166 Z"/><path d="M 7484,8151 L 7549,7813 7623,7828 7697,7842 7631,8180 7557,8166 7484,8151 Z"/><path d="M 7623,7828 L 7549,7813 7551,7807 7623,7828 Z"/><path d="M 7551,7807 L 7636,7505 7708,7525 7780,7545 7695,7848 7623,7828 7551,7807 Z"/><path d="M 7708,7525 L 7636,7505 7638,7499 7708,7525 Z"/><path d="M 7638,7499 L 7686,7365 7757,7390 7827,7416 7779,7551 7708,7525 7638,7499 Z"/><path d="M 7757,7390 L 7686,7365 7688,7361 7757,7390 Z"/><path d="M 7688,7361 L 7740,7240 7809,7269 7878,7299 7826,7420 7757,7390 7688,7361 Z"/><path d="M 7809,7269 L 7740,7240 7742,7235 7809,7269 Z"/><path d="M 7742,7235 L 7797,7128 7864,7162 7931,7197 7876,7304 7809,7269 7742,7235 Z"/><path d="M 7864,7162 L 7797,7128 7801,7122 7864,7162 Z"/><path d="M 7801,7122 L 7858,7032 7921,7072 7985,7112 7927,7203 7864,7162 7801,7122 Z"/><path d="M 7921,7072 L 7858,7032 7863,7025 7921,7072 Z"/><path d="M 7863,7025 L 7923,6952 7981,6999 8039,7046 7980,7119 7921,7072 7863,7025 Z"/><path d="M 7981,6999 L 7923,6952 7929,6945 7981,6999 Z"/><path d="M 7929,6945 L 7959,6916 8011,6969 8063,7023 8033,7053 7981,6999 7929,6945 Z"/><path d="M 8011,6969 L 7959,6916 7964,6911 8011,6969 Z"/><path d="M 7964,6911 L 7995,6886 8042,6945 8089,7003 8058,7028 8011,6969 7964,6911 Z"/><path d="M 8042,6945 L 7995,6886 8002,6881 8042,6945 Z"/><path d="M 8002,6881 L 8033,6862 8073,6926 8113,6989 8082,7008 8042,6945 8002,6881 Z"/><path d="M 8073,6926 L 8033,6862 8042,6857 8073,6926 Z"/><path d="M 8042,6857 L 8073,6843 8104,6911 8135,6980 8104,6994 8073,6926 8042,6857 Z"/><path d="M 8104,6911 L 8073,6843 8084,6839 8104,6911 Z"/><path d="M 8084,6839 L 8115,6831 8135,6903 8155,6975 8124,6984 8104,6911 8084,6839 Z"/><path d="M 8135,6903 L 8115,6831 8128,6828 8128,6828 8135,6903 Z"/><path d="M 8128,6828 L 8159,6825 8166,6900 8173,6975 8142,6978 8135,6903 8128,6828 Z"/><path d="M 8166,6900 L 8159,6825 8166,6825 8166,6900 Z"/><path d="M 8166,6825 L 11500,6825 11500,6900 11500,6975 8166,6975 8166,6900 8166,6825 Z"/><path d="M 11500,6900 L 11500,6825 11513,6826 11526,6830 11537,6835 11548,6843 11557,6852 11565,6862 11570,6874 11574,6887 11575,6900 11574,6913 11570,6926 11565,6937 11557,6948 11548,6957 11538,6965 11526,6970 11513,6974 11507,6975 11500,6900 Z"/><path d="M 11507,6975 L 11476,6978 11469,6903 11462,6828 11493,6825 11500,6900 11507,6975 Z"/><path d="M 11469,6903 L 11449,6831 11462,6828 11462,6828 11469,6903 Z"/><path d="M 11489,6975 L 11458,6984 11438,6911 11418,6839 11449,6831 11469,6903 11489,6975 Z"/><path d="M 11438,6911 L 11407,6843 11418,6839 11438,6911 Z"/><path d="M 11469,6980 L 11438,6994 11407,6926 11376,6857 11407,6843 11438,6911 11469,6980 Z"/><path d="M 11407,6926 L 11367,6862 11376,6857 11407,6926 Z"/><path d="M 11447,6989 L 11416,7008 11376,6945 11336,6881 11367,6862 11407,6926 11447,6989 Z"/><path d="M 11376,6945 L 11329,6886 11336,6881 11376,6945 Z"/><path d="M 11423,7003 L 11392,7028 11345,6969 11298,6911 11329,6886 11376,6945 11423,7003 Z"/><path d="M 11345,6969 L 11293,6916 11298,6911 11345,6969 Z"/><path d="M 11397,7023 L 11367,7053 11315,6999 11263,6945 11293,6916 11345,6969 11397,7023 Z"/><path d="M 11315,6999 L 11257,6952 11263,6945 11315,6999 Z"/><path d="M 11373,7046 L 11314,7119 11255,7072 11197,7025 11257,6952 11315,6999 11373,7046 Z"/><path d="M 11255,7072 L 11192,7032 11197,7025 11255,7072 Z"/><path d="M 11319,7112 L 11261,7203 11198,7162 11135,7122 11192,7032 11255,7072 11319,7112 Z"/><path d="M 11198,7162 L 11131,7128 11135,7122 11198,7162 Z"/><path d="M 11265,7197 L 11210,7304 11143,7269 11076,7235 11131,7128 11198,7162 11265,7197 Z"/><path d="M 11143,7269 L 11074,7240 11076,7235 11143,7269 Z"/><path d="M 11212,7299 L 11160,7420 11091,7390 11022,7361 11074,7240 11143,7269 11212,7299 Z"/><path d="M 11091,7390 L 11020,7365 11022,7361 11091,7390 Z"/><path d="M 11161,7416 L 11113,7551 11042,7525 10972,7499 11020,7365 11091,7390 11161,7416 Z"/><path d="M 11042,7525 L 10970,7505 10972,7499 11042,7525 Z"/><path d="M 11114,7545 L 11029,7848 10957,7828 10885,7807 10970,7505 11042,7525 11114,7545 Z"/><path d="M 10957,7828 L 10883,7813 10885,7807 10957,7828 Z"/><path d="M 11031,7842 L 10965,8180 10891,8166 10818,8151 10883,7813 10957,7828 11031,7842 Z"/><path d="M 10891,8166 L 10817,8157 10818,8151 10891,8166 Z"/><path d="M 10966,8174 L 10923,8536 10849,8527 10774,8518 10817,8157 10891,8166 10966,8174 Z"/><path d="M 10849,8527 L 10774,8524 10774,8518 10849,8527 Z"/><path d="M 10924,8530 L 10909,8903 10834,8900 10759,8897 10774,8524 10849,8527 10924,8530 Z"/><path d="M 10834,8900 L 10759,8903 10759,8897 10834,8900 Z"/><path d="M 10909,8897 L 10924,9270 10849,9273 10774,9276 10759,8903 10834,8900 10909,8897 Z"/><path d="M 10849,9273 L 10774,9282 10774,9276 10849,9273 Z"/><path d="M 10923,9264 L 10966,9626 10891,9634 10817,9643 10774,9282 10849,9273 10923,9264 Z"/><path d="M 10891,9634 L 10818,9649 10817,9643 10891,9634 Z"/><path d="M 10965,9620 L 11031,9958 10957,9972 10883,9987 10818,9649 10891,9634 10965,9620 Z"/><path d="M 10957,9972 L 10885,9993 10883,9987 10957,9972 Z"/><path d="M 11029,9952 L 11114,10255 11042,10275 10970,10295 10885,9993 10957,9972 11029,9952 Z"/><path d="M 11042,10275 L 10972,10301 10970,10295 11042,10275 Z"/><path d="M 11113,10249 L 11161,10384 11091,10410 11020,10435 10972,10301 11042,10275 11113,10249 Z"/><path d="M 11091,10410 L 11022,10439 11020,10435 11091,10410 Z"/><path d="M 11160,10380 L 11212,10501 11143,10531 11074,10560 11022,10439 11091,10410 11160,10380 Z"/><path d="M 11143,10531 L 11076,10565 11074,10560 11143,10531 Z"/><path d="M 11210,10496 L 11265,10603 11198,10638 11131,10672 11076,10565 11143,10531 11210,10496 Z"/><path d="M 11198,10638 L 11135,10678 11131,10672 11198,10638 Z"/><path d="M 11261,10597 L 11319,10688 11255,10728 11192,10768 11135,10678 11198,10638 11261,10597 Z"/><path d="M 11255,10728 L 11197,10775 11192,10768 11255,10728 Z"/><path d="M 11314,10681 L 11373,10754 11315,10801 11257,10848 11197,10775 11255,10728 11314,10681 Z"/><path d="M 11315,10801 L 11263,10855 11257,10848 11315,10801 Z"/><path d="M 11367,10747 L 11397,10777 11345,10831 11293,10884 11263,10855 11315,10801 11367,10747 Z"/><path d="M 11345,10831 L 11298,10889 11293,10884 11345,10831 Z"/><path d="M 11392,10772 L 11423,10797 11376,10855 11329,10914 11298,10889 11345,10831 11392,10772 Z"/><path d="M 11376,10855 L 11336,10919 11329,10914 11376,10855 Z"/><path d="M 11416,10792 L 11447,10811 11407,10874 11367,10938 11336,10919 11376,10855 11416,10792 Z"/><path d="M 11407,10874 L 11376,10943 11367,10938 11407,10874 Z"/><path d="M 11438,10806 L 11469,10820 11438,10889 11407,10957 11376,10943 11407,10874 11438,10806 Z"/><path d="M 11438,10889 L 11418,10961 11407,10957 11438,10889 Z"/><path d="M 11458,10816 L 11489,10825 11469,10897 11449,10969 11418,10961 11438,10889 11458,10816 Z"/><path d="M 11469,10897 L 11462,10972 11449,10969 11449,10969 11469,10897 Z"/><path d="M 11476,10822 L 11507,10825 11500,10900 11493,10975 11462,10972 11469,10897 11476,10822 Z"/><path d="M 11500,10900 L 11507,10825 11520,10828 11532,10832 11543,10839 11553,10847 11562,10857 11568,10869 11573,10881 11575,10894 11575,10907 11572,10920 11568,10932 11561,10943 11553,10953 11543,10962 11531,10968 11519,10973 11506,10975 11500,10975 11500,10900 Z"/><path d="M 11500,10975 L 8166,10975 8166,10900 8166,10825 11500,10825 11500,10900 11500,10975 Z"/><path d="M 8166,10900 L 8166,10975 8159,10975 8166,10900 Z"/></g><g/></g></g><g><desc>Drawing</desc><g><g style="stroke:none;fill:rgb(0,102,204)"><path d="M 10044,5515 L 10030,5514 10017,5511 10003,5506 9990,5499 9977,5490 9963,5480 9938,5454 9912,5422 9889,5384 9866,5341 9845,5294 9825,5242 9808,5187 9779,5067 9761,4939 9754,4807 9761,4675 9779,4547 9808,4427 9825,4372 9845,4320 9866,4273 9889,4230 9912,4192 9938,4160 9963,4134 9977,4124 9990,4115 10003,4108 10017,4103 10030,4100 10044,4099 11497,4099 11483,4100 11470,4103 11456,4108 11443,4115 11429,4124 11416,4134 11390,4160 11365,4192 11341,4230 11318,4273 11297,4320 11277,4372 11260,4427 11231,4547 11213,4675 11206,4807 11213,4939 11231,5067 11260,5187 11277,5242 11297,5294 11318,5341 11341,5384 11365,5422 11390,5454 11416,5480 11429,5490 11443,5499 11456,5506 11470,5511 11483,5514 11497,5515 10044,5515 Z"/></g><g style="stroke:none;fill:rgb(255,255,255)"><path d="M 10038,5590 L 10025,5589 10030,5514 10036,5439 10050,5440 10044,5515 10038,5590 Z"/><path d="M 10030,5514 L 10025,5589 10014,5587 10030,5514 Z"/><path d="M 10014,5587 L 10000,5584 10017,5511 10033,5438 10047,5441 10030,5514 10014,5587 Z"/><path d="M 10017,5511 L 10000,5584 9991,5581 10017,5511 Z"/><path d="M 9991,5581 L 9977,5576 10003,5506 10029,5436 10043,5441 10017,5511 9991,5581 Z"/><path d="M 10003,5506 L 9977,5576 9969,5573 10003,5506 Z"/><path d="M 9969,5573 L 9956,5566 9990,5499 10024,5432 10037,5439 10003,5506 9969,5573 Z"/><path d="M 9990,5499 L 9956,5566 9949,5562 9990,5499 Z"/><path d="M 9949,5562 L 9936,5553 9977,5490 10018,5428 10031,5436 9990,5499 9949,5562 Z"/><path d="M 9977,5490 L 9936,5553 9930,5549 9977,5490 Z"/><path d="M 9930,5549 L 9917,5539 9963,5480 10010,5421 10023,5432 9977,5490 9930,5549 Z"/><path d="M 9963,5480 L 9917,5539 9910,5533 9963,5480 Z"/><path d="M 9910,5533 L 9885,5507 9938,5454 9991,5401 10016,5427 9963,5480 9910,5533 Z"/><path d="M 9938,5454 L 9885,5507 9878,5500 9938,5454 Z"/><path d="M 9878,5500 L 9853,5468 9912,5422 9972,5376 9997,5408 9938,5454 9878,5500 Z"/><path d="M 9912,5422 L 9853,5468 9849,5462 9912,5422 Z"/><path d="M 9849,5462 L 9825,5425 9889,5384 9952,5344 9976,5382 9912,5422 9849,5462 Z"/><path d="M 9889,5384 L 9825,5425 9822,5419 9889,5384 Z"/><path d="M 9822,5419 L 9800,5376 9866,5341 9932,5306 9955,5349 9889,5384 9822,5419 Z"/><path d="M 9866,5341 L 9800,5376 9797,5372 9866,5341 Z"/><path d="M 9797,5372 L 9776,5324 9845,5294 9913,5263 9934,5311 9866,5341 9797,5372 Z"/><path d="M 9845,5294 L 9776,5324 9774,5320 9845,5294 Z"/><path d="M 9774,5320 L 9755,5268 9825,5242 9895,5216 9915,5267 9845,5294 9774,5320 Z"/><path d="M 9825,5242 L 9755,5268 9754,5265 9825,5242 Z"/><path d="M 9754,5265 L 9736,5209 9808,5187 9879,5164 9897,5219 9825,5242 9754,5265 Z"/><path d="M 9808,5187 L 9736,5209 9735,5204 9808,5187 Z"/><path d="M 9735,5204 L 9706,5084 9779,5067 9852,5050 9880,5169 9808,5187 9735,5204 Z"/><path d="M 9779,5067 L 9706,5084 9705,5078 9779,5067 Z"/><path d="M 9705,5078 L 9686,4950 9761,4939 9835,4928 9853,5056 9779,5067 9705,5078 Z"/><path d="M 9761,4939 L 9686,4950 9686,4943 9761,4939 Z"/><path d="M 9686,4943 L 9679,4811 9754,4807 9829,4803 9835,4935 9761,4939 9686,4943 Z"/><path d="M 9754,4807 L 9679,4811 9679,4803 9754,4807 Z"/><path d="M 9679,4803 L 9686,4671 9761,4675 9835,4679 9829,4811 9754,4807 9679,4803 Z"/><path d="M 9761,4675 L 9686,4671 9686,4664 9761,4675 Z"/><path d="M 9686,4664 L 9705,4536 9779,4547 9853,4558 9835,4686 9761,4675 9686,4664 Z"/><path d="M 9779,4547 L 9705,4536 9706,4530 9779,4547 Z"/><path d="M 9706,4530 L 9735,4410 9808,4427 9880,4445 9852,4564 9779,4547 9706,4530 Z"/><path d="M 9808,4427 L 9735,4410 9736,4405 9808,4427 Z"/><path d="M 9736,4405 L 9754,4349 9825,4372 9897,4395 9879,4450 9808,4427 9736,4405 Z"/><path d="M 9825,4372 L 9754,4349 9755,4346 9825,4372 Z"/><path d="M 9755,4346 L 9774,4294 9845,4320 9915,4347 9895,4398 9825,4372 9755,4346 Z"/><path d="M 9845,4320 L 9774,4294 9776,4290 9845,4320 Z"/><path d="M 9776,4290 L 9797,4242 9866,4273 9934,4303 9913,4351 9845,4320 9776,4290 Z"/><path d="M 9866,4273 L 9797,4242 9800,4238 9866,4273 Z"/><path d="M 9800,4238 L 9822,4195 9889,4230 9955,4265 9932,4308 9866,4273 9800,4238 Z"/><path d="M 9889,4230 L 9822,4195 9825,4189 9889,4230 Z"/><path d="M 9825,4189 L 9849,4152 9912,4192 9976,4232 9952,4270 9889,4230 9825,4189 Z"/><path d="M 9912,4192 L 9849,4152 9853,4146 9912,4192 Z"/><path d="M 9853,4146 L 9878,4114 9938,4160 9997,4206 9972,4238 9912,4192 9853,4146 Z"/><path d="M 9938,4160 L 9878,4114 9885,4107 9938,4160 Z"/><path d="M 9885,4107 L 9910,4081 9963,4134 10016,4187 9991,4213 9938,4160 9885,4107 Z"/><path d="M 9963,4134 L 9910,4081 9917,4075 9963,4134 Z"/><path d="M 9917,4075 L 9930,4065 9977,4124 10023,4182 10010,4193 9963,4134 9917,4075 Z"/><path d="M 9977,4124 L 9930,4065 9936,4061 9977,4124 Z"/><path d="M 9936,4061 L 9949,4052 9990,4115 10031,4178 10018,4186 9977,4124 9936,4061 Z"/><path d="M 9990,4115 L 9949,4052 9956,4048 9990,4115 Z"/><path d="M 9956,4048 L 9969,4041 10003,4108 10037,4175 10024,4182 9990,4115 9956,4048 Z"/><path d="M 10003,4108 L 9969,4041 9977,4038 10003,4108 Z"/><path d="M 9977,4038 L 9991,4033 10017,4103 10043,4173 10029,4178 10003,4108 9977,4038 Z"/><path d="M 10017,4103 L 9991,4033 10000,4030 10017,4103 Z"/><path d="M 10000,4030 L 10014,4027 10030,4100 10047,4173 10033,4176 10017,4103 10000,4030 Z"/><path d="M 10030,4100 L 10014,4027 10025,4025 10030,4100 Z"/><path d="M 10025,4025 L 10038,4024 10044,4099 10050,4174 10036,4175 10030,4100 10025,4025 Z"/><path d="M 10044,4099 L 10038,4024 10044,4024 10044,4099 Z"/><path d="M 10044,4024 L 11497,4024 11497,4099 11497,4174 10044,4174 10044,4099 10044,4024 Z"/><path d="M 11497,4099 L 11497,4024 11510,4025 11523,4029 11534,4034 11545,4042 11554,4051 11562,4061 11567,4073 11571,4086 11572,4099 11571,4112 11567,4125 11562,4136 11554,4147 11545,4156 11535,4164 11523,4169 11510,4173 11503,4174 11497,4099 Z"/><path d="M 11503,4174 L 11489,4175 11483,4100 11478,4025 11491,4024 11497,4099 11503,4174 Z"/><path d="M 11483,4100 L 11467,4027 11478,4025 11483,4100 Z"/><path d="M 11500,4173 L 11486,4176 11470,4103 11453,4030 11467,4027 11483,4100 11500,4173 Z"/><path d="M 11470,4103 L 11444,4033 11453,4030 11470,4103 Z"/><path d="M 11495,4173 L 11482,4178 11456,4108 11430,4038 11444,4033 11470,4103 11495,4173 Z"/><path d="M 11456,4108 L 11422,4041 11430,4038 11456,4108 Z"/><path d="M 11490,4175 L 11477,4182 11443,4115 11409,4048 11422,4041 11456,4108 11490,4175 Z"/><path d="M 11443,4115 L 11402,4052 11409,4048 11443,4115 Z"/><path d="M 11483,4178 L 11470,4187 11429,4124 11388,4061 11402,4052 11443,4115 11483,4178 Z"/><path d="M 11429,4124 L 11383,4065 11388,4061 11429,4124 Z"/><path d="M 11476,4183 L 11462,4193 11416,4134 11370,4075 11383,4065 11429,4124 11476,4183 Z"/><path d="M 11416,4134 L 11363,4081 11370,4075 11416,4134 Z"/><path d="M 11469,4187 L 11443,4213 11390,4160 11337,4107 11363,4081 11416,4134 11469,4187 Z"/><path d="M 11390,4160 L 11331,4114 11337,4107 11390,4160 Z"/><path d="M 11449,4206 L 11424,4238 11365,4192 11306,4146 11331,4114 11390,4160 11449,4206 Z"/><path d="M 11365,4192 L 11302,4152 11306,4146 11365,4192 Z"/><path d="M 11428,4232 L 11404,4270 11341,4230 11278,4189 11302,4152 11365,4192 11428,4232 Z"/><path d="M 11341,4230 L 11274,4195 11278,4189 11341,4230 Z"/><path d="M 11407,4265 L 11384,4308 11318,4273 11252,4238 11274,4195 11341,4230 11407,4265 Z"/><path d="M 11318,4273 L 11250,4242 11252,4238 11318,4273 Z"/><path d="M 11386,4303 L 11365,4351 11297,4320 11228,4290 11250,4242 11318,4273 11386,4303 Z"/><path d="M 11297,4320 L 11227,4294 11228,4290 11297,4320 Z"/><path d="M 11367,4347 L 11347,4399 11277,4372 11207,4346 11227,4294 11297,4320 11367,4347 Z"/><path d="M 11277,4372 L 11206,4349 11207,4346 11277,4372 Z"/><path d="M 11349,4395 L 11331,4450 11260,4427 11188,4405 11206,4349 11277,4372 11349,4395 Z"/><path d="M 11260,4427 L 11187,4410 11188,4405 11260,4427 Z"/><path d="M 11333,4445 L 11304,4564 11231,4547 11158,4530 11187,4410 11260,4427 11333,4445 Z"/><path d="M 11231,4547 L 11157,4536 11158,4530 11231,4547 Z"/><path d="M 11305,4558 L 11287,4686 11213,4675 11138,4664 11157,4536 11231,4547 11305,4558 Z"/><path d="M 11213,4675 L 11138,4671 11138,4664 11213,4675 Z"/><path d="M 11287,4679 L 11281,4811 11206,4807 11131,4803 11138,4671 11213,4675 11287,4679 Z"/><path d="M 11206,4807 L 11131,4811 11131,4803 11206,4807 Z"/><path d="M 11281,4803 L 11287,4935 11213,4939 11138,4943 11131,4811 11206,4807 11281,4803 Z"/><path d="M 11213,4939 L 11138,4950 11138,4943 11213,4939 Z"/><path d="M 11287,4928 L 11305,5056 11231,5067 11157,5078 11138,4950 11213,4939 11287,4928 Z"/><path d="M 11231,5067 L 11158,5084 11157,5078 11231,5067 Z"/><path d="M 11304,5050 L 11333,5169 11260,5187 11187,5204 11158,5084 11231,5067 11304,5050 Z"/><path d="M 11260,5187 L 11188,5209 11187,5204 11260,5187 Z"/><path d="M 11331,5164 L 11349,5219 11277,5242 11206,5265 11188,5209 11260,5187 11331,5164 Z"/><path d="M 11277,5242 L 11207,5268 11206,5265 11277,5242 Z"/><path d="M 11347,5215 L 11367,5267 11297,5294 11227,5320 11207,5268 11277,5242 11347,5215 Z"/><path d="M 11297,5294 L 11228,5324 11227,5320 11297,5294 Z"/><path d="M 11365,5263 L 11386,5311 11318,5341 11250,5372 11228,5324 11297,5294 11365,5263 Z"/><path d="M 11318,5341 L 11252,5376 11250,5372 11318,5341 Z"/><path d="M 11384,5306 L 11407,5349 11341,5384 11274,5419 11252,5376 11318,5341 11384,5306 Z"/><path d="M 11341,5384 L 11278,5425 11274,5419 11341,5384 Z"/><path d="M 11404,5344 L 11428,5382 11365,5422 11302,5462 11278,5425 11341,5384 11404,5344 Z"/><path d="M 11365,5422 L 11306,5468 11302,5462 11365,5422 Z"/><path d="M 11424,5376 L 11449,5408 11390,5454 11331,5500 11306,5468 11365,5422 11424,5376 Z"/><path d="M 11390,5454 L 11337,5507 11331,5500 11390,5454 Z"/><path d="M 11443,5401 L 11469,5427 11416,5480 11363,5533 11337,5507 11390,5454 11443,5401 Z"/><path d="M 11416,5480 L 11370,5539 11363,5533 11416,5480 Z"/><path d="M 11462,5421 L 11476,5431 11429,5490 11383,5549 11370,5539 11416,5480 11462,5421 Z"/><path d="M 11429,5490 L 11388,5553 11383,5549 11429,5490 Z"/><path d="M 11470,5427 L 11483,5436 11443,5499 11402,5562 11388,5553 11429,5490 11470,5427 Z"/><path d="M 11443,5499 L 11409,5566 11402,5562 11443,5499 Z"/><path d="M 11477,5432 L 11490,5439 11456,5506 11422,5573 11409,5566 11443,5499 11477,5432 Z"/><path d="M 11456,5506 L 11430,5576 11422,5573 11456,5506 Z"/><path d="M 11482,5436 L 11495,5441 11470,5511 11444,5581 11430,5576 11456,5506 11482,5436 Z"/><path d="M 11470,5511 L 11453,5584 11444,5581 11470,5511 Z"/><path d="M 11486,5438 L 11500,5441 11483,5514 11467,5587 11453,5584 11470,5511 11486,5438 Z"/><path d="M 11483,5514 L 11478,5589 11467,5587 11483,5514 Z"/><path d="M 11489,5439 L 11503,5440 11497,5515 11491,5590 11478,5589 11483,5514 11489,5439 Z"/><path d="M 11497,5515 L 11503,5440 11516,5442 11528,5447 11539,5453 11549,5461 11558,5471 11565,5482 11569,5495 11572,5508 11572,5521 11570,5534 11565,5546 11559,5557 11551,5567 11541,5576 11530,5583 11517,5587 11504,5590 11497,5590 11497,5515 Z"/><path d="M 11497,5590 L 10044,5590 10044,5515 10044,5440 11497,5440 11497,5515 11497,5590 Z"/><path d="M 10044,5515 L 10044,5590 10038,5590 10044,5515 Z"/></g><g/></g></g><g><desc>Drawing</desc><g><g style="stroke:none;fill:rgb(0,102,204)"><path d="M 9733,7701 L 9713,7699 9692,7694 9672,7686 9652,7675 9632,7661 9612,7644 9574,7602 9536,7550 9501,7488 9467,7419 9435,7341 9380,7167 9337,6972 9310,6765 9300,6550 9310,6335 9337,6128 9380,5933 9435,5759 9467,5682 9501,5612 9536,5551 9574,5499 9612,5457 9632,5440 9652,5426 9672,5415 9692,5407 9713,5402 9733,5400 11901,5400 11881,5402 11860,5407 11840,5415 11820,5426 11800,5440 11780,5457 11742,5499 11704,5551 11668,5612 11634,5682 11603,5759 11547,5933 11504,6128 11477,6335 11467,6550 11477,6765 11504,6972 11547,7167 11603,7341 11634,7419 11668,7488 11704,7550 11742,7602 11780,7644 11800,7661 11820,7675 11840,7686 11860,7694 11881,7699 11901,7701 9733,7701 Z"/></g><g style="stroke:none;fill:rgb(255,255,255)"><path d="M 9727,7776 L 9707,7774 9713,7699 9719,7625 9739,7626 9733,7701 9727,7776 Z"/><path d="M 9713,7699 L 9707,7774 9695,7772 9713,7699 Z"/><path d="M 9695,7772 L 9675,7767 9692,7694 9710,7622 9730,7626 9713,7699 9695,7772 Z"/><path d="M 9692,7694 L 9675,7767 9664,7764 9692,7694 Z"/><path d="M 9664,7764 L 9644,7756 9672,7686 9700,7617 9720,7625 9692,7694 9664,7764 Z"/><path d="M 9672,7686 L 9644,7756 9636,7752 9672,7686 Z"/><path d="M 9636,7752 L 9616,7741 9652,7675 9689,7610 9709,7621 9672,7686 9636,7752 Z"/><path d="M 9652,7675 L 9616,7741 9609,7736 9652,7675 Z"/><path d="M 9609,7736 L 9589,7722 9632,7661 9676,7600 9695,7614 9652,7675 9609,7736 Z"/><path d="M 9632,7661 L 9589,7722 9583,7718 9632,7661 Z"/><path d="M 9583,7718 L 9564,7701 9612,7644 9661,7587 9681,7604 9632,7661 9583,7718 Z"/><path d="M 9612,7644 L 9564,7701 9557,7695 9612,7644 Z"/><path d="M 9557,7695 L 9519,7653 9574,7602 9629,7551 9668,7593 9612,7644 9557,7695 Z"/><path d="M 9574,7602 L 9519,7653 9513,7646 9574,7602 Z"/><path d="M 9513,7646 L 9475,7594 9536,7550 9597,7506 9635,7558 9574,7602 9513,7646 Z"/><path d="M 9536,7550 L 9475,7594 9472,7588 9536,7550 Z"/><path d="M 9472,7588 L 9436,7526 9501,7488 9565,7451 9601,7512 9536,7550 9472,7588 Z"/><path d="M 9501,7488 L 9436,7526 9433,7521 9501,7488 Z"/><path d="M 9433,7521 L 9399,7451 9467,7419 9534,7386 9568,7456 9501,7488 9433,7521 Z"/><path d="M 9467,7419 L 9399,7451 9397,7447 9467,7419 Z"/><path d="M 9397,7447 L 9366,7369 9435,7341 9505,7313 9536,7390 9467,7419 9397,7447 Z"/><path d="M 9435,7341 L 9366,7369 9364,7364 9435,7341 Z"/><path d="M 9364,7364 L 9308,7190 9380,7167 9451,7144 9507,7318 9435,7341 9364,7364 Z"/><path d="M 9380,7167 L 9308,7190 9307,7183 9380,7167 Z"/><path d="M 9307,7183 L 9264,6988 9337,6972 9410,6956 9453,7151 9380,7167 9307,7183 Z"/><path d="M 9337,6972 L 9264,6988 9263,6982 9337,6972 Z"/><path d="M 9263,6982 L 9235,6774 9310,6765 9384,6755 9411,6963 9337,6972 9263,6982 Z"/><path d="M 9310,6765 L 9235,6774 9235,6768 9310,6765 Z"/><path d="M 9235,6768 L 9225,6553 9300,6550 9375,6547 9385,6761 9310,6765 9235,6768 Z"/><path d="M 9300,6550 L 9225,6553 9225,6547 9300,6550 Z"/><path d="M 9225,6547 L 9235,6332 9310,6335 9385,6339 9375,6553 9300,6550 9225,6547 Z"/><path d="M 9310,6335 L 9235,6332 9235,6326 9310,6335 Z"/><path d="M 9235,6326 L 9263,6118 9337,6128 9411,6138 9384,6345 9310,6335 9235,6326 Z"/><path d="M 9337,6128 L 9263,6118 9264,6112 9337,6128 Z"/><path d="M 9264,6112 L 9307,5917 9380,5933 9453,5950 9410,6144 9337,6128 9264,6112 Z"/><path d="M 9380,5933 L 9307,5917 9308,5911 9380,5933 Z"/><path d="M 9308,5911 L 9364,5737 9435,5759 9507,5782 9451,5956 9380,5933 9308,5911 Z"/><path d="M 9435,5759 L 9364,5737 9366,5731 9435,5759 Z"/><path d="M 9366,5731 L 9397,5654 9467,5682 9536,5710 9505,5788 9435,5759 9366,5731 Z"/><path d="M 9467,5682 L 9397,5654 9399,5649 9467,5682 Z"/><path d="M 9399,5649 L 9433,5580 9501,5612 9568,5645 9534,5715 9467,5682 9399,5649 Z"/><path d="M 9501,5612 L 9433,5580 9436,5574 9501,5612 Z"/><path d="M 9436,5574 L 9472,5513 9536,5551 9601,5589 9565,5650 9501,5612 9436,5574 Z"/><path d="M 9536,5551 L 9472,5513 9475,5507 9536,5551 Z"/><path d="M 9475,5507 L 9513,5455 9574,5499 9635,5543 9597,5595 9536,5551 9475,5507 Z"/><path d="M 9574,5499 L 9513,5455 9519,5448 9574,5499 Z"/><path d="M 9519,5448 L 9557,5406 9612,5457 9668,5508 9629,5550 9574,5499 9519,5448 Z"/><path d="M 9612,5457 L 9557,5406 9564,5400 9612,5457 Z"/><path d="M 9564,5400 L 9583,5383 9632,5440 9681,5497 9661,5514 9612,5457 9564,5400 Z"/><path d="M 9632,5440 L 9583,5383 9589,5379 9632,5440 Z"/><path d="M 9589,5379 L 9609,5365 9652,5426 9695,5487 9675,5501 9632,5440 9589,5379 Z"/><path d="M 9652,5426 L 9609,5365 9616,5360 9652,5426 Z"/><path d="M 9616,5360 L 9636,5349 9672,5415 9709,5480 9688,5491 9652,5426 9616,5360 Z"/><path d="M 9672,5415 L 9636,5349 9644,5345 9672,5415 Z"/><path d="M 9644,5345 L 9664,5337 9692,5407 9720,5476 9700,5484 9672,5415 9644,5345 Z"/><path d="M 9692,5407 L 9664,5337 9675,5334 9692,5407 Z"/><path d="M 9675,5334 L 9695,5329 9713,5402 9730,5475 9710,5479 9692,5407 9675,5334 Z"/><path d="M 9713,5402 L 9695,5329 9707,5327 9713,5402 Z"/><path d="M 9707,5327 L 9727,5325 9733,5400 9739,5475 9719,5476 9713,5402 9707,5327 Z"/><path d="M 9733,5400 L 9727,5325 9733,5325 9733,5400 Z"/><path d="M 9733,5325 L 11901,5325 11901,5400 11901,5475 9733,5475 9733,5400 9733,5325 Z"/><path d="M 11901,5400 L 11901,5325 11914,5326 11927,5330 11938,5335 11949,5343 11958,5352 11966,5362 11971,5374 11975,5387 11976,5400 11975,5413 11971,5426 11966,5437 11958,5448 11949,5457 11939,5465 11927,5470 11914,5474 11907,5475 11901,5400 Z"/><path d="M 11907,5475 L 11887,5476 11881,5402 11875,5327 11895,5325 11901,5400 11907,5475 Z"/><path d="M 11881,5402 L 11863,5329 11875,5327 11881,5402 Z"/><path d="M 11898,5475 L 11878,5479 11860,5407 11843,5334 11863,5329 11881,5402 11898,5475 Z"/><path d="M 11860,5407 L 11833,5337 11843,5334 11860,5407 Z"/><path d="M 11888,5476 L 11868,5484 11840,5415 11812,5345 11833,5337 11860,5407 11888,5476 Z"/><path d="M 11840,5415 L 11804,5349 11812,5345 11840,5415 Z"/><path d="M 11877,5480 L 11856,5491 11820,5426 11784,5360 11804,5349 11840,5415 11877,5480 Z"/><path d="M 11820,5426 L 11777,5365 11784,5360 11820,5426 Z"/><path d="M 11863,5487 L 11843,5501 11800,5440 11757,5379 11777,5365 11820,5426 11863,5487 Z"/><path d="M 11800,5440 L 11751,5383 11757,5379 11800,5440 Z"/><path d="M 11849,5497 L 11829,5514 11780,5457 11732,5400 11751,5383 11800,5440 11849,5497 Z"/><path d="M 11780,5457 L 11725,5406 11732,5400 11780,5457 Z"/><path d="M 11835,5508 L 11797,5550 11742,5499 11687,5448 11725,5406 11780,5457 11835,5508 Z"/><path d="M 11742,5499 L 11681,5455 11687,5448 11742,5499 Z"/><path d="M 11803,5543 L 11765,5595 11704,5551 11643,5507 11681,5455 11742,5499 11803,5543 Z"/><path d="M 11704,5551 L 11639,5513 11643,5507 11704,5551 Z"/><path d="M 11769,5589 L 11733,5650 11668,5612 11604,5574 11639,5513 11704,5551 11769,5589 Z"/><path d="M 11668,5612 L 11601,5579 11604,5574 11668,5612 Z"/><path d="M 11736,5645 L 11702,5715 11634,5682 11567,5649 11601,5579 11668,5612 11736,5645 Z"/><path d="M 11634,5682 L 11565,5654 11567,5649 11634,5682 Z"/><path d="M 11704,5710 L 11672,5788 11603,5759 11533,5731 11565,5654 11634,5682 11704,5710 Z"/><path d="M 11603,5759 L 11531,5737 11533,5731 11603,5759 Z"/><path d="M 11674,5782 L 11619,5956 11547,5933 11476,5911 11531,5737 11603,5759 11674,5782 Z"/><path d="M 11547,5933 L 11474,5917 11476,5911 11547,5933 Z"/><path d="M 11620,5950 L 11578,6144 11504,6128 11431,6112 11474,5917 11547,5933 11620,5950 Z"/><path d="M 11504,6128 L 11430,6118 11431,6112 11504,6128 Z"/><path d="M 11579,6138 L 11551,6345 11477,6335 11402,6326 11430,6118 11504,6128 11579,6138 Z"/><path d="M 11477,6335 L 11402,6332 11402,6326 11477,6335 Z"/><path d="M 11552,6339 L 11542,6553 11467,6550 11392,6547 11402,6332 11477,6335 11552,6339 Z"/><path d="M 11467,6550 L 11392,6553 11392,6547 11467,6550 Z"/><path d="M 11542,6547 L 11552,6761 11477,6765 11402,6768 11392,6553 11467,6550 11542,6547 Z"/><path d="M 11477,6765 L 11402,6774 11402,6768 11477,6765 Z"/><path d="M 11551,6755 L 11579,6963 11504,6972 11430,6982 11402,6774 11477,6765 11551,6755 Z"/><path d="M 11504,6972 L 11431,6989 11430,6982 11504,6972 Z"/><path d="M 11578,6956 L 11620,7151 11547,7167 11474,7183 11431,6989 11504,6972 11578,6956 Z"/><path d="M 11547,7167 L 11476,7190 11474,7183 11547,7167 Z"/><path d="M 11619,7144 L 11674,7318 11603,7341 11531,7364 11476,7190 11547,7167 11619,7144 Z"/><path d="M 11603,7341 L 11533,7370 11531,7364 11603,7341 Z"/><path d="M 11672,7313 L 11704,7390 11634,7419 11565,7447 11533,7370 11603,7341 11672,7313 Z"/><path d="M 11634,7419 L 11567,7451 11565,7447 11634,7419 Z"/><path d="M 11702,7386 L 11736,7456 11668,7488 11601,7521 11567,7451 11634,7419 11702,7386 Z"/><path d="M 11668,7488 L 11604,7526 11601,7521 11668,7488 Z"/><path d="M 11733,7451 L 11769,7512 11704,7550 11639,7588 11604,7526 11668,7488 11733,7451 Z"/><path d="M 11704,7550 L 11643,7594 11639,7588 11704,7550 Z"/><path d="M 11765,7506 L 11803,7558 11742,7602 11681,7646 11643,7594 11704,7550 11765,7506 Z"/><path d="M 11742,7602 L 11686,7653 11681,7646 11742,7602 Z"/><path d="M 11797,7551 L 11836,7593 11780,7644 11725,7695 11686,7653 11742,7602 11797,7551 Z"/><path d="M 11780,7644 L 11731,7701 11725,7695 11780,7644 Z"/><path d="M 11829,7587 L 11849,7604 11800,7661 11751,7718 11731,7701 11780,7644 11829,7587 Z"/><path d="M 11800,7661 L 11757,7722 11751,7718 11800,7661 Z"/><path d="M 11843,7600 L 11863,7614 11820,7675 11777,7736 11757,7722 11800,7661 11843,7600 Z"/><path d="M 11820,7675 L 11784,7741 11777,7736 11820,7675 Z"/><path d="M 11856,7610 L 11877,7621 11840,7686 11804,7752 11784,7741 11820,7675 11856,7610 Z"/><path d="M 11840,7686 L 11812,7756 11804,7752 11840,7686 Z"/><path d="M 11868,7617 L 11888,7625 11860,7694 11832,7764 11812,7756 11840,7686 11868,7617 Z"/><path d="M 11860,7694 L 11843,7767 11832,7764 11860,7694 Z"/><path d="M 11878,7622 L 11898,7626 11881,7699 11863,7772 11843,7767 11860,7694 11878,7622 Z"/><path d="M 11881,7699 L 11875,7774 11863,7772 11881,7699 Z"/><path d="M 11887,7625 L 11907,7626 11901,7701 11895,7776 11875,7774 11881,7699 11887,7625 Z"/><path d="M 11901,7701 L 11907,7626 11920,7628 11932,7633 11944,7639 11954,7648 11962,7658 11969,7669 11973,7681 11976,7694 11976,7707 11974,7720 11969,7732 11963,7744 11954,7754 11944,7762 11933,7769 11921,7773 11908,7776 11901,7776 11901,7701 Z"/><path d="M 11901,7776 L 9733,7776 9733,7701 9733,7626 11901,7626 11901,7701 11901,7776 Z"/><path d="M 9733,7701 L 9733,7776 9727,7776 9733,7701 Z"/></g><g/></g></g><g><desc>Drawing</desc><g><g style="stroke:none;fill:rgb(0,102,204)"><path d="M 9266,11300 L 9235,11297 9204,11289 9173,11274 9142,11255 9111,11231 9081,11201 9021,11128 8964,11038 8909,10931 8857,10810 8808,10675 8723,10372 8657,10034 8615,9673 8600,9300 8615,8927 8657,8566 8723,8228 8808,7925 8857,7790 8909,7669 8964,7562 9021,7472 9081,7399 9111,7369 9142,7345 9173,7326 9204,7311 9235,7303 9266,7300 12600,7300 12569,7303 12538,7311 12507,7326 12476,7345 12445,7369 12415,7399 12355,7472 12298,7562 12243,7669 12191,7790 12142,7925 12057,8228 11991,8566 11949,8927 11934,9300 11949,9673 11991,10034 12057,10372 12142,10675 12191,10810 12243,10931 12298,11038 12355,11128 12415,11201 12445,11231 12476,11255 12507,11274 12538,11289 12569,11297 12600,11300 9266,11300 Z"/></g><g style="stroke:none;fill:rgb(255,255,255)"><path d="M 9259,11375 L 9228,11372 9235,11297 9242,11222 9273,11225 9266,11300 9259,11375 Z"/><path d="M 9235,11297 L 9228,11372 9215,11369 9215,11369 9235,11297 Z"/><path d="M 9215,11369 L 9184,11361 9204,11289 9224,11216 9255,11225 9235,11297 9215,11369 Z"/><path d="M 9204,11289 L 9184,11361 9173,11357 9204,11289 Z"/><path d="M 9173,11357 L 9142,11343 9173,11274 9204,11206 9235,11220 9204,11289 9173,11357 Z"/><path d="M 9173,11274 L 9142,11343 9133,11338 9173,11274 Z"/><path d="M 9133,11338 L 9102,11319 9142,11255 9182,11192 9213,11211 9173,11274 9133,11338 Z"/><path d="M 9142,11255 L 9102,11319 9095,11314 9142,11255 Z"/><path d="M 9095,11314 L 9064,11289 9111,11231 9158,11172 9189,11197 9142,11255 9095,11314 Z"/><path d="M 9111,11231 L 9064,11289 9059,11284 9111,11231 Z"/><path d="M 9059,11284 L 9029,11255 9081,11201 9133,11147 9163,11177 9111,11231 9059,11284 Z"/><path d="M 9081,11201 L 9029,11255 9023,11248 9081,11201 Z"/><path d="M 9023,11248 L 8963,11175 9021,11128 9080,11081 9139,11154 9081,11201 9023,11248 Z"/><path d="M 9021,11128 L 8963,11175 8958,11168 9021,11128 Z"/><path d="M 8958,11168 L 8901,11078 8964,11038 9027,10997 9085,11088 9021,11128 8958,11168 Z"/><path d="M 8964,11038 L 8901,11078 8897,11072 8964,11038 Z"/><path d="M 8897,11072 L 8842,10965 8909,10931 8976,10896 9031,11003 8964,11038 8897,11072 Z"/><path d="M 8909,10931 L 8842,10965 8840,10960 8909,10931 Z"/><path d="M 8840,10960 L 8788,10839 8857,10810 8926,10780 8978,10901 8909,10931 8840,10960 Z"/><path d="M 8857,10810 L 8788,10839 8786,10835 8857,10810 Z"/><path d="M 8786,10835 L 8738,10701 8808,10675 8879,10649 8927,10784 8857,10810 8786,10835 Z"/><path d="M 8808,10675 L 8738,10701 8736,10695 8808,10675 Z"/><path d="M 8736,10695 L 8651,10393 8723,10372 8795,10352 8880,10655 8808,10675 8736,10695 Z"/><path d="M 8723,10372 L 8651,10393 8649,10387 8723,10372 Z"/><path d="M 8649,10387 L 8584,10049 8657,10034 8731,10020 8797,10358 8723,10372 8649,10387 Z"/><path d="M 8657,10034 L 8584,10049 8583,10043 8657,10034 Z"/><path d="M 8583,10043 L 8540,9682 8615,9673 8689,9664 8732,10026 8657,10034 8583,10043 Z"/><path d="M 8615,9673 L 8540,9682 8540,9676 8615,9673 Z"/><path d="M 8540,9676 L 8525,9303 8600,9300 8675,9297 8690,9670 8615,9673 8540,9676 Z"/><path d="M 8600,9300 L 8525,9303 8525,9297 8600,9300 Z"/><path d="M 8525,9297 L 8540,8924 8615,8927 8690,8930 8675,9303 8600,9300 8525,9297 Z"/><path d="M 8615,8927 L 8540,8924 8540,8918 8615,8927 Z"/><path d="M 8540,8918 L 8583,8557 8657,8566 8732,8574 8689,8936 8615,8927 8540,8918 Z"/><path d="M 8657,8566 L 8583,8557 8584,8551 8657,8566 Z"/><path d="M 8584,8551 L 8649,8213 8723,8228 8797,8242 8731,8580 8657,8566 8584,8551 Z"/><path d="M 8723,8228 L 8649,8213 8651,8207 8723,8228 Z"/><path d="M 8651,8207 L 8736,7905 8808,7925 8880,7945 8795,8248 8723,8228 8651,8207 Z"/><path d="M 8808,7925 L 8736,7905 8738,7899 8808,7925 Z"/><path d="M 8738,7899 L 8786,7765 8857,7790 8927,7816 8879,7951 8808,7925 8738,7899 Z"/><path d="M 8857,7790 L 8786,7765 8788,7761 8857,7790 Z"/><path d="M 8788,7761 L 8840,7640 8909,7669 8978,7699 8926,7820 8857,7790 8788,7761 Z"/><path d="M 8909,7669 L 8840,7640 8842,7635 8909,7669 Z"/><path d="M 8842,7635 L 8897,7528 8964,7562 9031,7597 8976,7704 8909,7669 8842,7635 Z"/><path d="M 8964,7562 L 8897,7528 8901,7522 8964,7562 Z"/><path d="M 8901,7522 L 8958,7432 9021,7472 9085,7512 9027,7603 8964,7562 8901,7522 Z"/><path d="M 9021,7472 L 8958,7432 8963,7425 9021,7472 Z"/><path d="M 8963,7425 L 9023,7352 9081,7399 9139,7446 9080,7519 9021,7472 8963,7425 Z"/><path d="M 9081,7399 L 9023,7352 9029,7345 9081,7399 Z"/><path d="M 9029,7345 L 9059,7316 9111,7369 9163,7423 9133,7453 9081,7399 9029,7345 Z"/><path d="M 9111,7369 L 9059,7316 9064,7311 9111,7369 Z"/><path d="M 9064,7311 L 9095,7286 9142,7345 9189,7403 9158,7428 9111,7369 9064,7311 Z"/><path d="M 9142,7345 L 9095,7286 9102,7281 9142,7345 Z"/><path d="M 9102,7281 L 9133,7262 9173,7326 9213,7389 9182,7408 9142,7345 9102,7281 Z"/><path d="M 9173,7326 L 9133,7262 9142,7257 9173,7326 Z"/><path d="M 9142,7257 L 9173,7243 9204,7311 9235,7380 9204,7394 9173,7326 9142,7257 Z"/><path d="M 9204,7311 L 9173,7243 9184,7239 9204,7311 Z"/><path d="M 9184,7239 L 9215,7231 9235,7303 9255,7375 9224,7384 9204,7311 9184,7239 Z"/><path d="M 9235,7303 L 9215,7231 9228,7228 9228,7228 9235,7303 Z"/><path d="M 9228,7228 L 9259,7225 9266,7300 9273,7375 9242,7378 9235,7303 9228,7228 Z"/><path d="M 9266,7300 L 9259,7225 9266,7225 9266,7300 Z"/><path d="M 9266,7225 L 12600,7225 12600,7300 12600,7375 9266,7375 9266,7300 9266,7225 Z"/><path d="M 12600,7300 L 12600,7225 12613,7226 12626,7230 12637,7235 12648,7243 12657,7252 12665,7262 12670,7274 12674,7287 12675,7300 12674,7313 12670,7326 12665,7337 12657,7348 12648,7357 12638,7365 12626,7370 12613,7374 12607,7375 12600,7300 Z"/><path d="M 12607,7375 L 12576,7378 12569,7303 12562,7228 12593,7225 12600,7300 12607,7375 Z"/><path d="M 12569,7303 L 12549,7231 12562,7228 12562,7228 12569,7303 Z"/><path d="M 12589,7375 L 12558,7384 12538,7311 12518,7239 12549,7231 12569,7303 12589,7375 Z"/><path d="M 12538,7311 L 12507,7243 12518,7239 12538,7311 Z"/><path d="M 12569,7380 L 12538,7394 12507,7326 12476,7257 12507,7243 12538,7311 12569,7380 Z"/><path d="M 12507,7326 L 12467,7262 12476,7257 12507,7326 Z"/><path d="M 12547,7389 L 12516,7408 12476,7345 12436,7281 12467,7262 12507,7326 12547,7389 Z"/><path d="M 12476,7345 L 12429,7286 12436,7281 12476,7345 Z"/><path d="M 12523,7403 L 12492,7428 12445,7369 12398,7311 12429,7286 12476,7345 12523,7403 Z"/><path d="M 12445,7369 L 12393,7316 12398,7311 12445,7369 Z"/><path d="M 12497,7423 L 12467,7453 12415,7399 12363,7345 12393,7316 12445,7369 12497,7423 Z"/><path d="M 12415,7399 L 12357,7352 12363,7345 12415,7399 Z"/><path d="M 12473,7446 L 12414,7519 12355,7472 12297,7425 12357,7352 12415,7399 12473,7446 Z"/><path d="M 12355,7472 L 12292,7432 12297,7425 12355,7472 Z"/><path d="M 12419,7512 L 12361,7603 12298,7562 12235,7522 12292,7432 12355,7472 12419,7512 Z"/><path d="M 12298,7562 L 12231,7528 12235,7522 12298,7562 Z"/><path d="M 12365,7597 L 12310,7704 12243,7669 12176,7635 12231,7528 12298,7562 12365,7597 Z"/><path d="M 12243,7669 L 12174,7640 12176,7635 12243,7669 Z"/><path d="M 12312,7699 L 12260,7820 12191,7790 12122,7761 12174,7640 12243,7669 12312,7699 Z"/><path d="M 12191,7790 L 12120,7765 12122,7761 12191,7790 Z"/><path d="M 12261,7816 L 12213,7951 12142,7925 12072,7899 12120,7765 12191,7790 12261,7816 Z"/><path d="M 12142,7925 L 12070,7905 12072,7899 12142,7925 Z"/><path d="M 12214,7945 L 12129,8248 12057,8228 11985,8207 12070,7905 12142,7925 12214,7945 Z"/><path d="M 12057,8228 L 11983,8213 11985,8207 12057,8228 Z"/><path d="M 12131,8242 L 12065,8580 11991,8566 11918,8551 11983,8213 12057,8228 12131,8242 Z"/><path d="M 11991,8566 L 11917,8557 11918,8551 11991,8566 Z"/><path d="M 12066,8574 L 12023,8936 11949,8927 11874,8918 11917,8557 11991,8566 12066,8574 Z"/><path d="M 11949,8927 L 11874,8924 11874,8918 11949,8927 Z"/><path d="M 12024,8930 L 12009,9303 11934,9300 11859,9297 11874,8924 11949,8927 12024,8930 Z"/><path d="M 11934,9300 L 11859,9303 11859,9297 11934,9300 Z"/><path d="M 12009,9297 L 12024,9670 11949,9673 11874,9676 11859,9303 11934,9300 12009,9297 Z"/><path d="M 11949,9673 L 11874,9682 11874,9676 11949,9673 Z"/><path d="M 12023,9664 L 12066,10026 11991,10034 11917,10043 11874,9682 11949,9673 12023,9664 Z"/><path d="M 11991,10034 L 11918,10049 11917,10043 11991,10034 Z"/><path d="M 12065,10020 L 12131,10358 12057,10372 11983,10387 11918,10049 11991,10034 12065,10020 Z"/><path d="M 12057,10372 L 11985,10393 11983,10387 12057,10372 Z"/><path d="M 12129,10352 L 12214,10655 12142,10675 12070,10695 11985,10393 12057,10372 12129,10352 Z"/><path d="M 12142,10675 L 12072,10701 12070,10695 12142,10675 Z"/><path d="M 12213,10649 L 12261,10784 12191,10810 12120,10835 12072,10701 12142,10675 12213,10649 Z"/><path d="M 12191,10810 L 12122,10839 12120,10835 12191,10810 Z"/><path d="M 12260,10780 L 12312,10901 12243,10931 12174,10960 12122,10839 12191,10810 12260,10780 Z"/><path d="M 12243,10931 L 12176,10965 12174,10960 12243,10931 Z"/><path d="M 12310,10896 L 12365,11003 12298,11038 12231,11072 12176,10965 12243,10931 12310,10896 Z"/><path d="M 12298,11038 L 12235,11078 12231,11072 12298,11038 Z"/><path d="M 12361,10997 L 12419,11088 12355,11128 12292,11168 12235,11078 12298,11038 12361,10997 Z"/><path d="M 12355,11128 L 12297,11175 12292,11168 12355,11128 Z"/><path d="M 12414,11081 L 12473,11154 12415,11201 12357,11248 12297,11175 12355,11128 12414,11081 Z"/><path d="M 12415,11201 L 12363,11255 12357,11248 12415,11201 Z"/><path d="M 12467,11147 L 12497,11177 12445,11231 12393,11284 12363,11255 12415,11201 12467,11147 Z"/><path d="M 12445,11231 L 12398,11289 12393,11284 12445,11231 Z"/><path d="M 12492,11172 L 12523,11197 12476,11255 12429,11314 12398,11289 12445,11231 12492,11172 Z"/><path d="M 12476,11255 L 12436,11319 12429,11314 12476,11255 Z"/><path d="M 12516,11192 L 12547,11211 12507,11274 12467,11338 12436,11319 12476,11255 12516,11192 Z"/><path d="M 12507,11274 L 12476,11343 12467,11338 12507,11274 Z"/><path d="M 12538,11206 L 12569,11220 12538,11289 12507,11357 12476,11343 12507,11274 12538,11206 Z"/><path d="M 12538,11289 L 12518,11361 12507,11357 12538,11289 Z"/><path d="M 12558,11216 L 12589,11225 12569,11297 12549,11369 12518,11361 12538,11289 12558,11216 Z"/><path d="M 12569,11297 L 12562,11372 12549,11369 12549,11369 12569,11297 Z"/><path d="M 12576,11222 L 12607,11225 12600,11300 12593,11375 12562,11372 12569,11297 12576,11222 Z"/><path d="M 12600,11300 L 12607,11225 12620,11228 12632,11232 12643,11239 12653,11247 12662,11257 12668,11269 12673,11281 12675,11294 12675,11307 12672,11320 12668,11332 12661,11343 12653,11353 12643,11362 12631,11368 12619,11373 12606,11375 12600,11375 12600,11300 Z"/><path d="M 12600,11375 L 9266,11375 9266,11300 9266,11225 12600,11225 12600,11300 12600,11375 Z"/><path d="M 9266,11300 L 9266,11375 9259,11375 9266,11300 Z"/></g><g/></g></g><g><desc>Drawing</desc><g><g style="stroke:none;fill:rgb(0,102,204)"><path d="M 10366,11800 L 10335,11797 10304,11789 10273,11774 10242,11755 10211,11731 10181,11701 10121,11628 10064,11538 10009,11431 9957,11310 9908,11175 9823,10872 9757,10534 9715,10173 9700,9800 9715,9427 9757,9066 9823,8728 9908,8425 9957,8290 10009,8169 10064,8062 10121,7972 10181,7899 10211,7869 10242,7845 10273,7826 10304,7811 10335,7803 10366,7800 13700,7800 13669,7803 13638,7811 13607,7826 13576,7845 13545,7869 13515,7899 13455,7972 13398,8062 13343,8169 13291,8290 13242,8425 13157,8728 13091,9066 13049,9427 13034,9800 13049,10173 13091,10534 13157,10872 13242,11175 13291,11310 13343,11431 13398,11538 13455,11628 13515,11701 13545,11731 13576,11755 13607,11774 13638,11789 13669,11797 13700,11800 10366,11800 Z"/></g><g style="stroke:none;fill:rgb(255,255,255)"><path d="M 10359,11875 L 10328,11872 10335,11797 10342,11722 10373,11725 10366,11800 10359,11875 Z"/><path d="M 10335,11797 L 10328,11872 10315,11869 10315,11869 10335,11797 Z"/><path d="M 10315,11869 L 10284,11861 10304,11789 10324,11716 10355,11725 10335,11797 10315,11869 Z"/><path d="M 10304,11789 L 10284,11861 10273,11857 10304,11789 Z"/><path d="M 10273,11857 L 10242,11843 10273,11774 10304,11706 10335,11720 10304,11789 10273,11857 Z"/><path d="M 10273,11774 L 10242,11843 10233,11838 10273,11774 Z"/><path d="M 10233,11838 L 10202,11819 10242,11755 10282,11692 10313,11711 10273,11774 10233,11838 Z"/><path d="M 10242,11755 L 10202,11819 10195,11814 10242,11755 Z"/><path d="M 10195,11814 L 10164,11789 10211,11731 10258,11672 10289,11697 10242,11755 10195,11814 Z"/><path d="M 10211,11731 L 10164,11789 10159,11784 10211,11731 Z"/><path d="M 10159,11784 L 10129,11755 10181,11701 10233,11647 10263,11677 10211,11731 10159,11784 Z"/><path d="M 10181,11701 L 10129,11755 10123,11748 10181,11701 Z"/><path d="M 10123,11748 L 10063,11675 10121,11628 10180,11581 10239,11654 10181,11701 10123,11748 Z"/><path d="M 10121,11628 L 10063,11675 10058,11668 10121,11628 Z"/><path d="M 10058,11668 L 10001,11578 10064,11538 10127,11497 10185,11588 10121,11628 10058,11668 Z"/><path d="M 10064,11538 L 10001,11578 9997,11572 10064,11538 Z"/><path d="M 9997,11572 L 9942,11465 10009,11431 10076,11396 10131,11503 10064,11538 9997,11572 Z"/><path d="M 10009,11431 L 9942,11465 9940,11460 10009,11431 Z"/><path d="M 9940,11460 L 9888,11339 9957,11310 10026,11280 10078,11401 10009,11431 9940,11460 Z"/><path d="M 9957,11310 L 9888,11339 9886,11335 9957,11310 Z"/><path d="M 9886,11335 L 9838,11201 9908,11175 9979,11149 10027,11284 9957,11310 9886,11335 Z"/><path d="M 9908,11175 L 9838,11201 9836,11195 9908,11175 Z"/><path d="M 9836,11195 L 9751,10893 9823,10872 9895,10852 9980,11155 9908,11175 9836,11195 Z"/><path d="M 9823,10872 L 9751,10893 9749,10887 9823,10872 Z"/><path d="M 9749,10887 L 9684,10549 9757,10534 9831,10520 9897,10858 9823,10872 9749,10887 Z"/><path d="M 9757,10534 L 9684,10549 9683,10543 9757,10534 Z"/><path d="M 9683,10543 L 9640,10182 9715,10173 9789,10164 9832,10526 9757,10534 9683,10543 Z"/><path d="M 9715,10173 L 9640,10182 9640,10176 9715,10173 Z"/><path d="M 9640,10176 L 9625,9803 9700,9800 9775,9797 9790,10170 9715,10173 9640,10176 Z"/><path d="M 9700,9800 L 9625,9803 9625,9797 9700,9800 Z"/><path d="M 9625,9797 L 9640,9424 9715,9427 9790,9430 9775,9803 9700,9800 9625,9797 Z"/><path d="M 9715,9427 L 9640,9424 9640,9418 9715,9427 Z"/><path d="M 9640,9418 L 9683,9057 9757,9066 9832,9074 9789,9436 9715,9427 9640,9418 Z"/><path d="M 9757,9066 L 9683,9057 9684,9051 9757,9066 Z"/><path d="M 9684,9051 L 9749,8713 9823,8728 9897,8742 9831,9080 9757,9066 9684,9051 Z"/><path d="M 9823,8728 L 9749,8713 9751,8707 9823,8728 Z"/><path d="M 9751,8707 L 9836,8405 9908,8425 9980,8445 9895,8748 9823,8728 9751,8707 Z"/><path d="M 9908,8425 L 9836,8405 9838,8399 9908,8425 Z"/><path d="M 9838,8399 L 9886,8265 9957,8290 10027,8316 9979,8451 9908,8425 9838,8399 Z"/><path d="M 9957,8290 L 9886,8265 9888,8261 9957,8290 Z"/><path d="M 9888,8261 L 9940,8140 10009,8169 10078,8199 10026,8320 9957,8290 9888,8261 Z"/><path d="M 10009,8169 L 9940,8140 9942,8135 10009,8169 Z"/><path d="M 9942,8135 L 9997,8028 10064,8062 10131,8097 10076,8204 10009,8169 9942,8135 Z"/><path d="M 10064,8062 L 9997,8028 10001,8022 10064,8062 Z"/><path d="M 10001,8022 L 10058,7932 10121,7972 10185,8012 10127,8103 10064,8062 10001,8022 Z"/><path d="M 10121,7972 L 10058,7932 10063,7925 10121,7972 Z"/><path d="M 10063,7925 L 10123,7852 10181,7899 10239,7946 10180,8019 10121,7972 10063,7925 Z"/><path d="M 10181,7899 L 10123,7852 10129,7845 10181,7899 Z"/><path d="M 10129,7845 L 10159,7816 10211,7869 10263,7923 10233,7953 10181,7899 10129,7845 Z"/><path d="M 10211,7869 L 10159,7816 10164,7811 10211,7869 Z"/><path d="M 10164,7811 L 10195,7786 10242,7845 10289,7903 10258,7928 10211,7869 10164,7811 Z"/><path d="M 10242,7845 L 10195,7786 10202,7781 10242,7845 Z"/><path d="M 10202,7781 L 10233,7762 10273,7826 10313,7889 10282,7908 10242,7845 10202,7781 Z"/><path d="M 10273,7826 L 10233,7762 10242,7757 10273,7826 Z"/><path d="M 10242,7757 L 10273,7743 10304,7811 10335,7880 10304,7894 10273,7826 10242,7757 Z"/><path d="M 10304,7811 L 10273,7743 10284,7739 10304,7811 Z"/><path d="M 10284,7739 L 10315,7731 10335,7803 10355,7875 10324,7884 10304,7811 10284,7739 Z"/><path d="M 10335,7803 L 10315,7731 10328,7728 10328,7728 10335,7803 Z"/><path d="M 10328,7728 L 10359,7725 10366,7800 10373,7875 10342,7878 10335,7803 10328,7728 Z"/><path d="M 10366,7800 L 10359,7725 10366,7725 10366,7800 Z"/><path d="M 10366,7725 L 13700,7725 13700,7800 13700,7875 10366,7875 10366,7800 10366,7725 Z"/><path d="M 13700,7800 L 13700,7725 13713,7726 13726,7730 13737,7735 13748,7743 13757,7752 13765,7762 13770,7774 13774,7787 13775,7800 13774,7813 13770,7826 13765,7837 13757,7848 13748,7857 13738,7865 13726,7870 13713,7874 13707,7875 13700,7800 Z"/><path d="M 13707,7875 L 13676,7878 13669,7803 13662,7728 13693,7725 13700,7800 13707,7875 Z"/><path d="M 13669,7803 L 13649,7731 13662,7728 13662,7728 13669,7803 Z"/><path d="M 13689,7875 L 13658,7884 13638,7811 13618,7739 13649,7731 13669,7803 13689,7875 Z"/><path d="M 13638,7811 L 13607,7743 13618,7739 13638,7811 Z"/><path d="M 13669,7880 L 13638,7894 13607,7826 13576,7757 13607,7743 13638,7811 13669,7880 Z"/><path d="M 13607,7826 L 13567,7762 13576,7757 13607,7826 Z"/><path d="M 13647,7889 L 13616,7908 13576,7845 13536,7781 13567,7762 13607,7826 13647,7889 Z"/><path d="M 13576,7845 L 13529,7786 13536,7781 13576,7845 Z"/><path d="M 13623,7903 L 13592,7928 13545,7869 13498,7811 13529,7786 13576,7845 13623,7903 Z"/><path d="M 13545,7869 L 13493,7816 13498,7811 13545,7869 Z"/><path d="M 13597,7923 L 13567,7953 13515,7899 13463,7845 13493,7816 13545,7869 13597,7923 Z"/><path d="M 13515,7899 L 13457,7852 13463,7845 13515,7899 Z"/><path d="M 13573,7946 L 13514,8019 13455,7972 13397,7925 13457,7852 13515,7899 13573,7946 Z"/><path d="M 13455,7972 L 13392,7932 13397,7925 13455,7972 Z"/><path d="M 13519,8012 L 13461,8103 13398,8062 13335,8022 13392,7932 13455,7972 13519,8012 Z"/><path d="M 13398,8062 L 13331,8028 13335,8022 13398,8062 Z"/><path d="M 13465,8097 L 13410,8204 13343,8169 13276,8135 13331,8028 13398,8062 13465,8097 Z"/><path d="M 13343,8169 L 13274,8140 13276,8135 13343,8169 Z"/><path d="M 13412,8199 L 13360,8320 13291,8290 13222,8261 13274,8140 13343,8169 13412,8199 Z"/><path d="M 13291,8290 L 13220,8265 13222,8261 13291,8290 Z"/><path d="M 13361,8316 L 13313,8451 13242,8425 13172,8399 13220,8265 13291,8290 13361,8316 Z"/><path d="M 13242,8425 L 13170,8405 13172,8399 13242,8425 Z"/><path d="M 13314,8445 L 13229,8748 13157,8728 13085,8707 13170,8405 13242,8425 13314,8445 Z"/><path d="M 13157,8728 L 13083,8713 13085,8707 13157,8728 Z"/><path d="M 13231,8742 L 13165,9080 13091,9066 13018,9051 13083,8713 13157,8728 13231,8742 Z"/><path d="M 13091,9066 L 13017,9057 13018,9051 13091,9066 Z"/><path d="M 13166,9074 L 13123,9436 13049,9427 12974,9418 13017,9057 13091,9066 13166,9074 Z"/><path d="M 13049,9427 L 12974,9424 12974,9418 13049,9427 Z"/><path d="M 13124,9430 L 13109,9803 13034,9800 12959,9797 12974,9424 13049,9427 13124,9430 Z"/><path d="M 13034,9800 L 12959,9803 12959,9797 13034,9800 Z"/><path d="M 13109,9797 L 13124,10170 13049,10173 12974,10176 12959,9803 13034,9800 13109,9797 Z"/><path d="M 13049,10173 L 12974,10182 12974,10176 13049,10173 Z"/><path d="M 13123,10164 L 13166,10526 13091,10534 13017,10543 12974,10182 13049,10173 13123,10164 Z"/><path d="M 13091,10534 L 13018,10549 13017,10543 13091,10534 Z"/><path d="M 13165,10520 L 13231,10858 13157,10872 13083,10887 13018,10549 13091,10534 13165,10520 Z"/><path d="M 13157,10872 L 13085,10893 13083,10887 13157,10872 Z"/><path d="M 13229,10852 L 13314,11155 13242,11175 13170,11195 13085,10893 13157,10872 13229,10852 Z"/><path d="M 13242,11175 L 13172,11201 13170,11195 13242,11175 Z"/><path d="M 13313,11149 L 13361,11284 13291,11310 13220,11335 13172,11201 13242,11175 13313,11149 Z"/><path d="M 13291,11310 L 13222,11339 13220,11335 13291,11310 Z"/><path d="M 13360,11280 L 13412,11401 13343,11431 13274,11460 13222,11339 13291,11310 13360,11280 Z"/><path d="M 13343,11431 L 13276,11465 13274,11460 13343,11431 Z"/><path d="M 13410,11396 L 13465,11503 13398,11538 13331,11572 13276,11465 13343,11431 13410,11396 Z"/><path d="M 13398,11538 L 13335,11578 13331,11572 13398,11538 Z"/><path d="M 13461,11497 L 13519,11588 13455,11628 13392,11668 13335,11578 13398,11538 13461,11497 Z"/><path d="M 13455,11628 L 13397,11675 13392,11668 13455,11628 Z"/><path d="M 13514,11581 L 13573,11654 13515,11701 13457,11748 13397,11675 13455,11628 13514,11581 Z"/><path d="M 13515,11701 L 13463,11755 13457,11748 13515,11701 Z"/><path d="M 13567,11647 L 13597,11677 13545,11731 13493,11784 13463,11755 13515,11701 13567,11647 Z"/><path d="M 13545,11731 L 13498,11789 13493,11784 13545,11731 Z"/><path d="M 13592,11672 L 13623,11697 13576,11755 13529,11814 13498,11789 13545,11731 13592,11672 Z"/><path d="M 13576,11755 L 13536,11819 13529,11814 13576,11755 Z"/><path d="M 13616,11692 L 13647,11711 13607,11774 13567,11838 13536,11819 13576,11755 13616,11692 Z"/><path d="M 13607,11774 L 13576,11843 13567,11838 13607,11774 Z"/><path d="M 13638,11706 L 13669,11720 13638,11789 13607,11857 13576,11843 13607,11774 13638,11706 Z"/><path d="M 13638,11789 L 13618,11861 13607,11857 13638,11789 Z"/><path d="M 13658,11716 L 13689,11725 13669,11797 13649,11869 13618,11861 13638,11789 13658,11716 Z"/><path d="M 13669,11797 L 13662,11872 13649,11869 13649,11869 13669,11797 Z"/><path d="M 13676,11722 L 13707,11725 13700,11800 13693,11875 13662,11872 13669,11797 13676,11722 Z"/><path d="M 13700,11800 L 13707,11725 13720,11728 13732,11732 13743,11739 13753,11747 13762,11757 13768,11769 13773,11781 13775,11794 13775,11807 13772,11820 13768,11832 13761,11843 13753,11853 13743,11862 13731,11868 13719,11873 13706,11875 13700,11875 13700,11800 Z"/><path d="M 13700,11875 L 10366,11875 10366,11800 10366,11725 13700,11725 13700,11800 13700,11875 Z"/><path d="M 10366,11800 L 10366,11875 10359,11875 10366,11800 Z"/></g><g/></g></g></g></svg>